# MagicaVoxel @ Ephtracy

# group
g RoadWithSewerHole

# material
mtllib RoadWithSewerHole.mtl
usemtl palette

# normals
vn -1 0 0
vn 1 0 0
vn 0 0 1
vn 0 0 -1
vn 0 -1 0
vn 0 1 0

# texcoords
vt 0.482422 0.5
vt 0.978516 0.5
vt 0.994141 0.5

# verts
v -40 0 40
v -40 0 -40
v -40 3 40
v -40 3 -40
v 3 0 4
v 3 0 3
v 3 0 -3
v 3 0 -4
v 3 1 4
v 3 1 3
v 3 1 -3
v 3 1 -4
v 4 0 3
v 4 0 -3
v 4 1 3
v 4 1 -3
v 28 1 40
v 28 1 -40
v 28 3 40
v 28 3 -40
v -28 1 40
v -28 1 -40
v -28 3 40
v -28 3 -40
v -4 0 3
v -4 0 -3
v -4 1 3
v -4 1 -3
v -3 0 4
v -3 0 3
v -3 0 -3
v -3 0 -4
v -3 1 4
v -3 1 3
v -3 1 -3
v -3 1 -4
v 40 0 40
v 40 0 -40
v 40 3 40
v 40 3 -40
v -40 0 40
v -40 3 40
v -28 0 40
v -28 1 40
v -28 3 40
v -2 0 40
v -2 1 40
v -1 0 40
v -1 1 40
v 1 0 40
v 1 1 40
v 2 0 40
v 2 1 40
v 28 0 40
v 28 1 40
v 28 3 40
v 40 0 40
v 40 3 40
v -4 0 -3
v -4 1 -3
v -3 0 -3
v -3 1 -3
v 3 0 -3
v 3 1 -3
v 4 0 -3
v 4 1 -3
v -3 0 -4
v -3 1 -4
v -2 0 -4
v -2 1 -4
v -1 0 -4
v -1 1 -4
v 1 0 -4
v 1 1 -4
v 2 0 -4
v 2 1 -4
v 3 0 -4
v 3 1 -4
v -3 0 4
v -3 1 4
v -2 0 4
v -2 1 4
v -1 0 4
v -1 1 4
v 1 0 4
v 1 1 4
v 2 0 4
v 2 1 4
v 3 0 4
v 3 1 4
v -4 0 3
v -4 1 3
v -3 0 3
v -3 1 3
v 3 0 3
v 3 1 3
v 4 0 3
v 4 1 3
v -40 0 -40
v -40 3 -40
v -28 0 -40
v -28 1 -40
v -28 3 -40
v -2 0 -40
v -2 1 -40
v -1 0 -40
v -1 1 -40
v 1 0 -40
v 1 1 -40
v 2 0 -40
v 2 1 -40
v 28 0 -40
v 28 1 -40
v 28 3 -40
v 40 0 -40
v 40 3 -40
v -40 0 40
v -28 0 40
v -2 0 40
v -1 0 40
v 1 0 40
v 2 0 40
v 28 0 40
v 40 0 40
v -3 0 4
v -2 0 4
v -1 0 4
v 1 0 4
v 2 0 4
v 3 0 4
v -4 0 3
v -3 0 3
v 3 0 3
v 4 0 3
v -4 0 -3
v -3 0 -3
v 3 0 -3
v 4 0 -3
v -3 0 -4
v -2 0 -4
v -1 0 -4
v 1 0 -4
v 2 0 -4
v 3 0 -4
v -40 0 -40
v -28 0 -40
v -2 0 -40
v -1 0 -40
v 1 0 -40
v 2 0 -40
v 28 0 -40
v 40 0 -40
v -28 1 40
v -2 1 40
v -1 1 40
v 1 1 40
v 2 1 40
v 28 1 40
v -3 1 4
v -2 1 4
v -1 1 4
v 1 1 4
v 2 1 4
v 3 1 4
v -4 1 3
v -3 1 3
v 3 1 3
v 4 1 3
v -4 1 -3
v -3 1 -3
v 3 1 -3
v 4 1 -3
v -3 1 -4
v -2 1 -4
v -1 1 -4
v 1 1 -4
v 2 1 -4
v 3 1 -4
v -28 1 -40
v -2 1 -40
v -1 1 -40
v 1 1 -40
v 2 1 -40
v 28 1 -40
v -40 3 40
v -28 3 40
v 28 3 40
v 40 3 40
v -40 3 -40
v -28 3 -40
v 28 3 -40
v 40 3 -40

# faces
f 3/2/1 2/2/1 1/2/1
f 4/2/1 2/2/1 3/2/1
f 9/3/1 6/3/1 5/3/1
f 10/3/1 6/3/1 9/3/1
f 11/3/1 8/3/1 7/3/1
f 12/3/1 8/3/1 11/3/1
f 15/3/1 14/3/1 13/3/1
f 16/3/1 14/3/1 15/3/1
f 19/2/1 18/2/1 17/2/1
f 20/2/1 18/2/1 19/2/1
f 21/2/2 22/2/2 23/2/2
f 23/2/2 22/2/2 24/2/2
f 25/3/2 26/3/2 27/3/2
f 27/3/2 26/3/2 28/3/2
f 29/3/2 30/3/2 33/3/2
f 33/3/2 30/3/2 34/3/2
f 31/3/2 32/3/2 35/3/2
f 35/3/2 32/3/2 36/3/2
f 37/2/2 38/2/2 39/2/2
f 39/2/2 38/2/2 40/2/2
f 43/2/3 42/2/3 41/2/3
f 44/2/3 42/2/3 43/2/3
f 45/2/3 42/2/3 44/2/3
f 46/3/3 44/3/3 43/3/3
f 47/3/3 44/3/3 46/3/3
f 48/1/3 47/1/3 46/1/3
f 49/1/3 47/1/3 48/1/3
f 50/3/3 49/3/3 48/3/3
f 51/3/3 49/3/3 50/3/3
f 52/1/3 51/1/3 50/1/3
f 53/1/3 51/1/3 52/1/3
f 54/3/3 53/3/3 52/3/3
f 55/3/3 53/3/3 54/3/3
f 57/2/3 55/2/3 54/2/3
f 57/2/3 56/2/3 55/2/3
f 58/2/3 56/2/3 57/2/3
f 61/3/3 60/3/3 59/3/3
f 62/3/3 60/3/3 61/3/3
f 65/3/3 64/3/3 63/3/3
f 66/3/3 64/3/3 65/3/3
f 69/3/3 68/3/3 67/3/3
f 70/3/3 68/3/3 69/3/3
f 71/1/3 70/1/3 69/1/3
f 72/1/3 70/1/3 71/1/3
f 73/3/3 72/3/3 71/3/3
f 74/3/3 72/3/3 73/3/3
f 75/1/3 74/1/3 73/1/3
f 76/1/3 74/1/3 75/1/3
f 77/3/3 76/3/3 75/3/3
f 78/3/3 76/3/3 77/3/3
f 79/3/4 80/3/4 81/3/4
f 81/3/4 80/3/4 82/3/4
f 81/1/4 82/1/4 83/1/4
f 83/1/4 82/1/4 84/1/4
f 83/3/4 84/3/4 85/3/4
f 85/3/4 84/3/4 86/3/4
f 85/1/4 86/1/4 87/1/4
f 87/1/4 86/1/4 88/1/4
f 87/3/4 88/3/4 89/3/4
f 89/3/4 88/3/4 90/3/4
f 91/3/4 92/3/4 93/3/4
f 93/3/4 92/3/4 94/3/4
f 95/3/4 96/3/4 97/3/4
f 97/3/4 96/3/4 98/3/4
f 99/2/4 100/2/4 101/2/4
f 101/2/4 100/2/4 102/2/4
f 102/2/4 100/2/4 103/2/4
f 101/3/4 102/3/4 104/3/4
f 104/3/4 102/3/4 105/3/4
f 104/1/4 105/1/4 106/1/4
f 106/1/4 105/1/4 107/1/4
f 106/3/4 107/3/4 108/3/4
f 108/3/4 107/3/4 109/3/4
f 108/1/4 109/1/4 110/1/4
f 110/1/4 109/1/4 111/1/4
f 110/3/4 111/3/4 112/3/4
f 112/3/4 111/3/4 113/3/4
f 112/2/4 113/2/4 115/2/4
f 113/2/4 114/2/4 115/2/4
f 115/2/4 114/2/4 116/2/4
f 125/3/5 119/3/5 118/3/5
f 126/1/5 120/1/5 119/1/5
f 126/3/5 119/3/5 125/3/5
f 127/3/5 121/3/5 120/3/5
f 127/1/5 120/1/5 126/1/5
f 128/1/5 122/1/5 121/1/5
f 128/3/5 121/3/5 127/3/5
f 129/3/5 123/3/5 122/3/5
f 129/1/5 122/1/5 128/1/5
f 130/3/5 123/3/5 129/3/5
f 131/3/5 125/3/5 118/3/5
f 132/3/5 125/3/5 131/3/5
f 133/3/5 123/3/5 130/3/5
f 134/3/5 123/3/5 133/3/5
f 135/3/5 131/3/5 118/3/5
f 138/3/5 123/3/5 134/3/5
f 139/3/5 136/3/5 135/3/5
f 144/3/5 138/3/5 137/3/5
f 145/2/5 118/2/5 117/2/5
f 146/3/5 135/3/5 118/3/5
f 146/2/5 118/2/5 145/2/5
f 146/3/5 139/3/5 135/3/5
f 146/3/5 140/3/5 139/3/5
f 147/1/5 141/1/5 140/1/5
f 147/3/5 140/3/5 146/3/5
f 148/3/5 142/3/5 141/3/5
f 148/1/5 141/1/5 147/1/5
f 149/1/5 143/1/5 142/1/5
f 149/3/5 142/3/5 148/3/5
f 150/3/5 144/3/5 143/3/5
f 150/1/5 143/1/5 149/1/5
f 151/2/5 124/2/5 123/2/5
f 151/3/5 144/3/5 150/3/5
f 151/3/5 123/3/5 138/3/5
f 151/3/5 138/3/5 144/3/5
f 152/2/5 124/2/5 151/2/5
f 153/3/6 154/3/6 159/3/6
f 154/1/6 155/1/6 160/1/6
f 159/3/6 154/3/6 160/3/6
f 155/3/6 156/3/6 161/3/6
f 160/1/6 155/1/6 161/1/6
f 156/1/6 157/1/6 162/1/6
f 161/3/6 156/3/6 162/3/6
f 157/3/6 158/3/6 163/3/6
f 162/1/6 157/1/6 163/1/6
f 163/3/6 158/3/6 164/3/6
f 153/3/6 159/3/6 165/3/6
f 165/3/6 159/3/6 166/3/6
f 164/3/6 158/3/6 167/3/6
f 167/3/6 158/3/6 168/3/6
f 153/3/6 165/3/6 169/3/6
f 168/3/6 158/3/6 172/3/6
f 169/3/6 170/3/6 173/3/6
f 171/3/6 172/3/6 178/3/6
f 153/3/6 169/3/6 179/3/6
f 169/3/6 173/3/6 179/3/6
f 173/3/6 174/3/6 179/3/6
f 174/1/6 175/1/6 180/1/6
f 179/3/6 174/3/6 180/3/6
f 175/3/6 176/3/6 181/3/6
f 180/1/6 175/1/6 181/1/6
f 176/1/6 177/1/6 182/1/6
f 181/3/6 176/3/6 182/3/6
f 177/3/6 178/3/6 183/3/6
f 182/1/6 177/1/6 183/1/6
f 172/3/6 158/3/6 184/3/6
f 183/3/6 178/3/6 184/3/6
f 178/3/6 172/3/6 184/3/6
f 185/2/6 186/2/6 189/2/6
f 189/2/6 186/2/6 190/2/6
f 187/2/6 188/2/6 191/2/6
f 191/2/6 188/2/6 192/2/6
