# MagicaVoxel @ Ephtracy

# group
g couch

# material
mtllib couch.mtl
usemtl palette

# normals
vn -1 0 0
vn 1 0 0
vn 0 0 1
vn 0 0 -1
vn 0 -1 0
vn 0 1 0

# texcoords
vt 0.232422 0.5
vt 0.255859 0.5

# verts
v -17 1 5
v -17 1 -5
v -17 2 6
v -17 2 5
v -17 2 -5
v -17 2 -6
v -17 7 6
v -17 7 5
v -17 8 5
v -17 8 -3
v -17 10 -3
v -17 10 -6
v -16 0 5
v -16 0 4
v -16 0 -4
v -16 0 -5
v -16 1 6
v -16 1 5
v -16 1 4
v -16 1 -4
v -16 1 -5
v -16 1 -6
v -16 2 6
v -16 2 5
v -16 2 -5
v -16 2 -6
v -16 10 -3
v -16 10 -6
v -16 11 -3
v -16 11 -6
v 14 5 6
v 14 5 -3
v 14 6 6
v 14 6 5
v 14 7 5
v 14 7 -3
v 15 0 5
v 15 0 4
v 15 0 -4
v 15 0 -5
v 15 1 5
v 15 1 4
v 15 1 -4
v 15 1 -5
v 15 6 6
v 15 6 5
v 15 7 6
v 15 7 5
v 15 7 -3
v 15 8 5
v 15 8 -3
v -15 0 5
v -15 0 4
v -15 0 -4
v -15 0 -5
v -15 1 5
v -15 1 4
v -15 1 -4
v -15 1 -5
v -15 6 6
v -15 6 5
v -15 7 6
v -15 7 5
v -15 7 -3
v -15 8 5
v -15 8 -3
v -14 5 6
v -14 5 -3
v -14 6 6
v -14 6 5
v -14 7 5
v -14 7 -3
v 16 0 5
v 16 0 4
v 16 0 -4
v 16 0 -5
v 16 1 6
v 16 1 5
v 16 1 4
v 16 1 -4
v 16 1 -5
v 16 1 -6
v 16 2 6
v 16 2 5
v 16 2 -5
v 16 2 -6
v 16 10 -3
v 16 10 -6
v 16 11 -3
v 16 11 -6
v 17 1 5
v 17 1 -5
v 17 2 6
v 17 2 5
v 17 2 -5
v 17 2 -6
v 17 7 6
v 17 7 5
v 17 8 5
v 17 8 -3
v 17 10 -3
v 17 10 -6
v -17 2 6
v -17 7 6
v -16 1 6
v -16 2 6
v -15 6 6
v -15 7 6
v -14 5 6
v -14 6 6
v 14 5 6
v 14 6 6
v 15 6 6
v 15 7 6
v 16 1 6
v 16 2 6
v 17 2 6
v 17 7 6
v -17 1 5
v -17 2 5
v -17 7 5
v -17 8 5
v -16 0 5
v -16 1 5
v -16 2 5
v -15 0 5
v -15 1 5
v -15 6 5
v -15 7 5
v -15 8 5
v -14 6 5
v -14 7 5
v 14 6 5
v 14 7 5
v 15 0 5
v 15 1 5
v 15 6 5
v 15 7 5
v 15 8 5
v 16 0 5
v 16 1 5
v 16 2 5
v 17 1 5
v 17 2 5
v 17 7 5
v 17 8 5
v -17 8 -3
v -17 10 -3
v -16 10 -3
v -16 11 -3
v -15 7 -3
v -15 8 -3
v -14 5 -3
v -14 7 -3
v 14 5 -3
v 14 7 -3
v 15 7 -3
v 15 8 -3
v 16 10 -3
v 16 11 -3
v 17 8 -3
v 17 10 -3
v -16 0 -4
v -16 1 -4
v -15 0 -4
v -15 1 -4
v 15 0 -4
v 15 1 -4
v 16 0 -4
v 16 1 -4
v -16 0 4
v -16 1 4
v -15 0 4
v -15 1 4
v 15 0 4
v 15 1 4
v 16 0 4
v 16 1 4
v -17 1 -5
v -17 2 -5
v -16 0 -5
v -16 1 -5
v -16 2 -5
v -15 0 -5
v -15 1 -5
v 15 0 -5
v 15 1 -5
v 16 0 -5
v 16 1 -5
v 16 2 -5
v 17 1 -5
v 17 2 -5
v -17 2 -6
v -17 10 -6
v -16 1 -6
v -16 2 -6
v -16 10 -6
v -16 11 -6
v 16 1 -6
v 16 2 -6
v 16 10 -6
v 16 11 -6
v 17 2 -6
v 17 10 -6
v -16 0 5
v -15 0 5
v 15 0 5
v 16 0 5
v -16 0 4
v -15 0 4
v 15 0 4
v 16 0 4
v -16 0 -4
v -15 0 -4
v 15 0 -4
v 16 0 -4
v -16 0 -5
v -15 0 -5
v 15 0 -5
v 16 0 -5
v -16 1 6
v 16 1 6
v -17 1 5
v -16 1 5
v -15 1 5
v 15 1 5
v 16 1 5
v 17 1 5
v -16 1 4
v -15 1 4
v 15 1 4
v 16 1 4
v -16 1 -4
v -15 1 -4
v 15 1 -4
v 16 1 -4
v -17 1 -5
v -16 1 -5
v -15 1 -5
v 15 1 -5
v 16 1 -5
v 17 1 -5
v -16 1 -6
v 16 1 -6
v -17 2 6
v -16 2 6
v 16 2 6
v 17 2 6
v -17 2 5
v -16 2 5
v 16 2 5
v 17 2 5
v -17 2 -5
v -16 2 -5
v 16 2 -5
v 17 2 -5
v -17 2 -6
v -16 2 -6
v 16 2 -6
v 17 2 -6
v -14 5 6
v 14 5 6
v -14 5 -3
v 14 5 -3
v -15 6 6
v -14 6 6
v 14 6 6
v 15 6 6
v -15 6 5
v -14 6 5
v 14 6 5
v 15 6 5
v -17 7 6
v -15 7 6
v 15 7 6
v 17 7 6
v -17 7 5
v -15 7 5
v -14 7 5
v 14 7 5
v 15 7 5
v 17 7 5
v -15 7 -3
v -14 7 -3
v 14 7 -3
v 15 7 -3
v -17 8 5
v -15 8 5
v 15 8 5
v 17 8 5
v -17 8 -3
v -15 8 -3
v 15 8 -3
v 17 8 -3
v -17 10 -3
v -16 10 -3
v 16 10 -3
v 17 10 -3
v -17 10 -6
v -16 10 -6
v 16 10 -6
v 17 10 -6
v -16 11 -3
v 16 11 -3
v -16 11 -6
v 16 11 -6

# faces
f 4/1/1 2/1/1 1/1/1
f 5/1/1 2/1/1 4/1/1
f 7/1/1 4/1/1 3/1/1
f 7/1/1 6/1/1 5/1/1
f 7/1/1 5/1/1 4/1/1
f 8/1/1 6/1/1 7/1/1
f 9/1/1 6/1/1 8/1/1
f 10/1/1 6/1/1 9/1/1
f 11/1/1 6/1/1 10/1/1
f 12/1/1 6/1/1 11/1/1
f 18/2/1 14/2/1 13/2/1
f 19/2/1 14/2/1 18/2/1
f 20/2/1 16/2/1 15/2/1
f 21/2/1 16/2/1 20/2/1
f 23/1/1 18/1/1 17/1/1
f 24/1/1 18/1/1 23/1/1
f 25/1/1 22/1/1 21/1/1
f 26/1/1 22/1/1 25/1/1
f 29/1/1 28/1/1 27/1/1
f 30/1/1 28/1/1 29/1/1
f 33/1/1 32/1/1 31/1/1
f 34/1/1 32/1/1 33/1/1
f 35/1/1 32/1/1 34/1/1
f 36/1/1 32/1/1 35/1/1
f 41/2/1 38/2/1 37/2/1
f 42/2/1 38/2/1 41/2/1
f 43/2/1 40/2/1 39/2/1
f 44/2/1 40/2/1 43/2/1
f 47/1/1 46/1/1 45/1/1
f 48/1/1 46/1/1 47/1/1
f 50/1/1 49/1/1 48/1/1
f 51/1/1 49/1/1 50/1/1
f 52/2/2 53/2/2 56/2/2
f 56/2/2 53/2/2 57/2/2
f 54/2/2 55/2/2 58/2/2
f 58/2/2 55/2/2 59/2/2
f 60/1/2 61/1/2 62/1/2
f 62/1/2 61/1/2 63/1/2
f 63/1/2 64/1/2 65/1/2
f 65/1/2 64/1/2 66/1/2
f 67/1/2 68/1/2 69/1/2
f 69/1/2 68/1/2 70/1/2
f 70/1/2 68/1/2 71/1/2
f 71/1/2 68/1/2 72/1/2
f 73/2/2 74/2/2 78/2/2
f 78/2/2 74/2/2 79/2/2
f 75/2/2 76/2/2 80/2/2
f 80/2/2 76/2/2 81/2/2
f 77/1/2 78/1/2 83/1/2
f 83/1/2 78/1/2 84/1/2
f 81/1/2 82/1/2 85/1/2
f 85/1/2 82/1/2 86/1/2
f 87/1/2 88/1/2 89/1/2
f 89/1/2 88/1/2 90/1/2
f 91/1/2 92/1/2 94/1/2
f 94/1/2 92/1/2 95/1/2
f 93/1/2 94/1/2 97/1/2
f 95/1/2 96/1/2 97/1/2
f 94/1/2 95/1/2 97/1/2
f 97/1/2 96/1/2 98/1/2
f 98/1/2 96/1/2 99/1/2
f 99/1/2 96/1/2 100/1/2
f 100/1/2 96/1/2 101/1/2
f 101/1/2 96/1/2 102/1/2
f 106/1/3 104/1/3 103/1/3
f 107/1/3 104/1/3 106/1/3
f 107/1/3 106/1/3 105/1/3
f 108/1/3 104/1/3 107/1/3
f 109/1/3 107/1/3 105/1/3
f 110/1/3 107/1/3 109/1/3
f 111/1/3 109/1/3 105/1/3
f 113/1/3 112/1/3 111/1/3
f 115/1/3 113/1/3 111/1/3
f 115/1/3 114/1/3 113/1/3
f 115/1/3 111/1/3 105/1/3
f 116/1/3 114/1/3 115/1/3
f 117/1/3 114/1/3 116/1/3
f 118/1/3 114/1/3 117/1/3
f 124/1/3 120/1/3 119/1/3
f 125/1/3 120/1/3 124/1/3
f 126/2/3 124/2/3 123/2/3
f 127/2/3 124/2/3 126/2/3
f 129/1/3 122/1/3 121/1/3
f 130/1/3 122/1/3 129/1/3
f 131/1/3 129/1/3 128/1/3
f 132/1/3 129/1/3 131/1/3
f 137/1/3 134/1/3 133/1/3
f 138/1/3 134/1/3 137/1/3
f 140/2/3 136/2/3 135/2/3
f 141/2/3 136/2/3 140/2/3
f 143/1/3 142/1/3 141/1/3
f 144/1/3 142/1/3 143/1/3
f 145/1/3 139/1/3 138/1/3
f 146/1/3 139/1/3 145/1/3
f 149/1/3 148/1/3 147/1/3
f 152/1/3 149/1/3 147/1/3
f 152/1/3 150/1/3 149/1/3
f 154/1/3 152/1/3 151/1/3
f 155/1/3 154/1/3 153/1/3
f 156/1/3 152/1/3 154/1/3
f 156/1/3 154/1/3 155/1/3
f 157/1/3 152/1/3 156/1/3
f 158/1/3 150/1/3 152/1/3
f 158/1/3 152/1/3 157/1/3
f 159/1/3 150/1/3 158/1/3
f 160/1/3 150/1/3 159/1/3
f 161/1/3 159/1/3 158/1/3
f 162/1/3 159/1/3 161/1/3
f 165/2/3 164/2/3 163/2/3
f 166/2/3 164/2/3 165/2/3
f 169/2/3 168/2/3 167/2/3
f 170/2/3 168/2/3 169/2/3
f 171/2/4 172/2/4 173/2/4
f 173/2/4 172/2/4 174/2/4
f 175/2/4 176/2/4 177/2/4
f 177/2/4 176/2/4 178/2/4
f 179/1/4 180/1/4 182/1/4
f 182/1/4 180/1/4 183/1/4
f 181/2/4 182/2/4 184/2/4
f 184/2/4 182/2/4 185/2/4
f 186/2/4 187/2/4 188/2/4
f 188/2/4 187/2/4 189/2/4
f 189/1/4 190/1/4 191/1/4
f 191/1/4 190/1/4 192/1/4
f 193/1/4 194/1/4 196/1/4
f 196/1/4 194/1/4 197/1/4
f 195/1/4 196/1/4 199/1/4
f 197/1/4 198/1/4 199/1/4
f 196/1/4 197/1/4 199/1/4
f 199/1/4 198/1/4 200/1/4
f 200/1/4 198/1/4 201/1/4
f 201/1/4 198/1/4 202/1/4
f 200/1/4 201/1/4 203/1/4
f 203/1/4 201/1/4 204/1/4
f 209/2/5 206/2/5 205/2/5
f 210/2/5 206/2/5 209/2/5
f 211/2/5 208/2/5 207/2/5
f 212/2/5 208/2/5 211/2/5
f 217/2/5 214/2/5 213/2/5
f 218/2/5 214/2/5 217/2/5
f 219/2/5 216/2/5 215/2/5
f 220/2/5 216/2/5 219/2/5
f 224/1/5 222/1/5 221/1/5
f 225/1/5 222/1/5 224/1/5
f 226/1/5 222/1/5 225/1/5
f 227/1/5 222/1/5 226/1/5
f 229/1/5 224/1/5 223/1/5
f 230/1/5 226/1/5 225/1/5
f 231/1/5 226/1/5 230/1/5
f 232/1/5 228/1/5 227/1/5
f 233/1/5 231/1/5 230/1/5
f 233/1/5 232/1/5 231/1/5
f 233/1/5 229/1/5 223/1/5
f 233/1/5 230/1/5 229/1/5
f 234/1/5 232/1/5 233/1/5
f 235/1/5 232/1/5 234/1/5
f 236/1/5 228/1/5 232/1/5
f 236/1/5 232/1/5 235/1/5
f 237/1/5 233/1/5 223/1/5
f 238/1/5 233/1/5 237/1/5
f 239/1/5 235/1/5 234/1/5
f 240/1/5 235/1/5 239/1/5
f 241/1/5 228/1/5 236/1/5
f 242/1/5 228/1/5 241/1/5
f 243/1/5 240/1/5 239/1/5
f 243/1/5 241/1/5 240/1/5
f 243/1/5 239/1/5 238/1/5
f 244/1/5 241/1/5 243/1/5
f 249/1/5 246/1/5 245/1/5
f 250/1/5 246/1/5 249/1/5
f 251/1/5 248/1/5 247/1/5
f 252/1/5 248/1/5 251/1/5
f 257/1/5 254/1/5 253/1/5
f 258/1/5 254/1/5 257/1/5
f 259/1/5 256/1/5 255/1/5
f 260/1/5 256/1/5 259/1/5
f 261/1/6 262/1/6 263/1/6
f 263/1/6 262/1/6 264/1/6
f 265/1/6 266/1/6 269/1/6
f 269/1/6 266/1/6 270/1/6
f 267/1/6 268/1/6 271/1/6
f 271/1/6 268/1/6 272/1/6
f 273/1/6 274/1/6 277/1/6
f 277/1/6 274/1/6 278/1/6
f 275/1/6 276/1/6 281/1/6
f 281/1/6 276/1/6 282/1/6
f 278/1/6 279/1/6 283/1/6
f 283/1/6 279/1/6 284/1/6
f 280/1/6 281/1/6 285/1/6
f 285/1/6 281/1/6 286/1/6
f 287/1/6 288/1/6 291/1/6
f 291/1/6 288/1/6 292/1/6
f 289/1/6 290/1/6 293/1/6
f 293/1/6 290/1/6 294/1/6
f 295/1/6 296/1/6 299/1/6
f 299/1/6 296/1/6 300/1/6
f 297/1/6 298/1/6 301/1/6
f 301/1/6 298/1/6 302/1/6
f 303/1/6 304/1/6 305/1/6
f 305/1/6 304/1/6 306/1/6
