# MagicaVoxel @ Ephtracy

# group
g Part4

# material
mtllib Part4.mtl
usemtl palette

# normals
vn -1 0 0
vn 1 0 0
vn 0 0 1
vn 0 0 -1
vn 0 -1 0
vn 0 1 0

# texcoords
vt 0.0605469 0.5
vt 0.365234 0.5
vt 0.974609 0.5
vt 0.982422 0.5

# verts
v -9 0 0.5
v -9 0 -2.5
v -9 1 -0.5
v -9 1 -1.5
v -9 2 -0.5
v -9 2 -1.5
v -9 3 0.5
v -9 3 -2.5
v -3 2 -4.5
v -3 2 -5.5
v -3 4 -4.5
v -3 4 -5.5
v -2 0 6.5
v -2 0 5.5
v -2 0 3.5
v -2 0 2.5
v -2 1 4.5
v -2 1 3.5
v -2 1 2.5
v -2 1 -4.5
v -2 1 -5.5
v -2 2 5.5
v -2 2 4.5
v -2 2 3.5
v -2 2 -3.5
v -2 2 -4.5
v -2 2 -5.5
v -2 2 -6.5
v -2 3 6.5
v -2 3 5.5
v -2 4 6.5
v -2 4 5.5
v -2 4 -3.5
v -2 4 -4.5
v -2 4 -5.5
v -2 4 -6.5
v -2 5 6.5
v -2 5 5.5
v -2 5 -4.5
v -2 5 -5.5
v 1 0 6.5
v 1 0 5.5
v 1 0 2.5
v 1 1 6.5
v 1 1 5.5
v 1 1 3.5
v 1 1 2.5
v 1 2 6.5
v 1 2 5.5
v 1 2 3.5
v 1 3 6.5
v 1 3 5.5
v 1 4 6.5
v 1 4 5.5
v 1 5 6.5
v 1 5 5.5
v 2 2 -5.5
v 2 2 -6.5
v 2 3 -5.5
v 2 3 -6.5
v 5 3 -4.5
v 5 3 -5.5
v 5 4 -4.5
v 5 4 -5.5
v 7 1 -4.5
v 7 1 -5.5
v 7 2 -3.5
v 7 2 -4.5
v 7 2 -5.5
v 7 2 -6.5
v 7 4 -3.5
v 7 4 -4.5
v 7 4 -5.5
v 7 4 -6.5
v 7 5 -4.5
v 7 5 -5.5
v -1 0 6.5
v -1 0 5.5
v -1 0 3.5
v -1 0 2.5
v -1 1 6.5
v -1 1 5.5
v -1 1 4.5
v -1 1 3.5
v -1 1 2.5
v -1 1 -4.5
v -1 1 -5.5
v -1 2 6.5
v -1 2 5.5
v -1 2 4.5
v -1 2 3.5
v -1 2 -3.5
v -1 2 -4.5
v -1 2 -5.5
v -1 2 -6.5
v -1 3 6.5
v -1 3 5.5
v -1 4 6.5
v -1 4 5.5
v -1 4 -3.5
v -1 4 -4.5
v -1 4 -5.5
v -1 4 -6.5
v -1 5 6.5
v -1 5 5.5
v -1 5 -4.5
v -1 5 -5.5
v 1 3 -4.5
v 1 3 -5.5
v 1 4 -4.5
v 1 4 -5.5
v 2 0 6.5
v 2 0 5.5
v 2 0 2.5
v 2 1 6.5
v 2 1 5.5
v 2 1 3.5
v 2 1 2.5
v 2 2 5.5
v 2 2 3.5
v 2 4 6.5
v 2 4 5.5
v 2 5 6.5
v 2 5 5.5
v 4 2 -5.5
v 4 2 -6.5
v 4 3 -5.5
v 4 3 -6.5
v 7 0 0.5
v 7 0 -2.5
v 7 1 -0.5
v 7 1 -1.5
v 7 2 -0.5
v 7 2 -1.5
v 7 3 0.5
v 7 3 -2.5
v 8 1 -4.5
v 8 1 -5.5
v 8 2 -3.5
v 8 2 -4.5
v 8 2 -5.5
v 8 2 -6.5
v 8 4 -3.5
v 8 4 -4.5
v 8 4 -5.5
v 8 4 -6.5
v 8 5 -4.5
v 8 5 -5.5
v 9 2 -4.5
v 9 2 -5.5
v 9 4 -4.5
v 9 4 -5.5
v -2 0 6.5
v -2 3 6.5
v -2 4 6.5
v -2 5 6.5
v -1 0 6.5
v -1 1 6.5
v -1 2 6.5
v -1 3 6.5
v -1 4 6.5
v -1 5 6.5
v 0 1 6.5
v 0 2 6.5
v 1 0 6.5
v 1 1 6.5
v 1 2 6.5
v 1 3 6.5
v 1 4 6.5
v 1 5 6.5
v 2 0 6.5
v 2 1 6.5
v 2 4 6.5
v 2 5 6.5
v -9 0 0.5
v -9 3 0.5
v 7 0 0.5
v 7 3 0.5
v -9 1 -1.5
v -9 2 -1.5
v 7 1 -1.5
v 7 2 -1.5
v -2 2 -3.5
v -2 4 -3.5
v -1 2 -3.5
v -1 4 -3.5
v 7 2 -3.5
v 7 4 -3.5
v 8 2 -3.5
v 8 4 -3.5
v -3 2 -4.5
v -3 4 -4.5
v -2 1 -4.5
v -2 2 -4.5
v -2 4 -4.5
v -2 5 -4.5
v -1 1 -4.5
v -1 2 -4.5
v -1 4 -4.5
v -1 5 -4.5
v 1 2 -4.5
v 1 3 -4.5
v 1 4 -4.5
v 5 2 -4.5
v 5 3 -4.5
v 5 4 -4.5
v 7 1 -4.5
v 7 2 -4.5
v 7 4 -4.5
v 7 5 -4.5
v 8 1 -4.5
v 8 2 -4.5
v 8 4 -4.5
v 8 5 -4.5
v 9 2 -4.5
v 9 4 -4.5
v -2 2 5.5
v -2 3 5.5
v -2 4 5.5
v -2 5 5.5
v -1 1 5.5
v -1 2 5.5
v -1 3 5.5
v -1 4 5.5
v -1 5 5.5
v 0 1 5.5
v 0 2 5.5
v 1 1 5.5
v 1 2 5.5
v 1 3 5.5
v 1 4 5.5
v 1 5 5.5
v 2 2 5.5
v 2 4 5.5
v 2 5 5.5
v -2 1 3.5
v -2 2 3.5
v -1 1 3.5
v -1 2 3.5
v 1 1 3.5
v 1 2 3.5
v 2 1 3.5
v 2 2 3.5
v -2 0 2.5
v -2 1 2.5
v -1 0 2.5
v -1 1 2.5
v 1 0 2.5
v 1 1 2.5
v 2 0 2.5
v 2 1 2.5
v -9 1 -0.5
v -9 2 -0.5
v 7 1 -0.5
v 7 2 -0.5
v -9 0 -2.5
v -9 3 -2.5
v 7 0 -2.5
v 7 3 -2.5
v -3 2 -5.5
v -3 4 -5.5
v -2 1 -5.5
v -2 2 -5.5
v -2 4 -5.5
v -2 5 -5.5
v -1 1 -5.5
v -1 2 -5.5
v -1 4 -5.5
v -1 5 -5.5
v 1 2 -5.5
v 1 3 -5.5
v 1 4 -5.5
v 2 2 -5.5
v 2 3 -5.5
v 4 2 -5.5
v 4 3 -5.5
v 5 2 -5.5
v 5 3 -5.5
v 5 4 -5.5
v 7 1 -5.5
v 7 2 -5.5
v 7 4 -5.5
v 7 5 -5.5
v 8 1 -5.5
v 8 2 -5.5
v 8 4 -5.5
v 8 5 -5.5
v 9 2 -5.5
v 9 4 -5.5
v -2 2 -6.5
v -2 4 -6.5
v -1 2 -6.5
v -1 4 -6.5
v 2 2 -6.5
v 2 3 -6.5
v 4 2 -6.5
v 4 3 -6.5
v 7 2 -6.5
v 7 4 -6.5
v 8 2 -6.5
v 8 4 -6.5
v -2 0 6.5
v -1 0 6.5
v 1 0 6.5
v 2 0 6.5
v -2 0 5.5
v -1 0 5.5
v 1 0 5.5
v 2 0 5.5
v -2 0 3.5
v -1 0 3.5
v -2 0 2.5
v -1 0 2.5
v 1 0 2.5
v 2 0 2.5
v -9 0 0.5
v 7 0 0.5
v -9 0 -2.5
v 7 0 -2.5
v -1 1 6.5
v 0 1 6.5
v 1 1 6.5
v -1 1 5.5
v 0 1 5.5
v 1 1 5.5
v -2 1 -4.5
v -1 1 -4.5
v 7 1 -4.5
v 8 1 -4.5
v -2 1 -5.5
v -1 1 -5.5
v 7 1 -5.5
v 8 1 -5.5
v -9 2 -0.5
v 7 2 -0.5
v -9 2 -1.5
v 7 2 -1.5
v -2 2 -3.5
v -1 2 -3.5
v 7 2 -3.5
v 8 2 -3.5
v -3 2 -4.5
v -2 2 -4.5
v -1 2 -4.5
v 1 2 -4.5
v 5 2 -4.5
v 7 2 -4.5
v 8 2 -4.5
v 9 2 -4.5
v -3 2 -5.5
v -2 2 -5.5
v -1 2 -5.5
v 1 2 -5.5
v 2 2 -5.5
v 4 2 -5.5
v 5 2 -5.5
v 7 2 -5.5
v 8 2 -5.5
v 9 2 -5.5
v -2 2 -6.5
v -1 2 -6.5
v 2 2 -6.5
v 4 2 -6.5
v 7 2 -6.5
v 8 2 -6.5
v -1 3 6.5
v 1 3 6.5
v -1 3 5.5
v 1 3 5.5
v -2 1 3.5
v -1 1 3.5
v 1 1 3.5
v 2 1 3.5
v -2 1 2.5
v -1 1 2.5
v 1 1 2.5
v 2 1 2.5
v -9 1 -0.5
v 7 1 -0.5
v -9 1 -1.5
v 7 1 -1.5
v -1 2 6.5
v 0 2 6.5
v 1 2 6.5
v -2 2 5.5
v -1 2 5.5
v 0 2 5.5
v 1 2 5.5
v 2 2 5.5
v -2 2 4.5
v -1 2 4.5
v -2 2 3.5
v -1 2 3.5
v 1 2 3.5
v 2 2 3.5
v -9 3 0.5
v 7 3 0.5
v -9 3 -2.5
v 7 3 -2.5
v 1 3 -4.5
v 5 3 -4.5
v 1 3 -5.5
v 2 3 -5.5
v 4 3 -5.5
v 5 3 -5.5
v 2 3 -6.5
v 4 3 -6.5
v -1 4 6.5
v 1 4 6.5
v -1 4 5.5
v 1 4 5.5
v -2 4 -3.5
v -1 4 -3.5
v 7 4 -3.5
v 8 4 -3.5
v -3 4 -4.5
v -2 4 -4.5
v -1 4 -4.5
v 1 4 -4.5
v 5 4 -4.5
v 7 4 -4.5
v 8 4 -4.5
v 9 4 -4.5
v -3 4 -5.5
v -2 4 -5.5
v -1 4 -5.5
v 1 4 -5.5
v 5 4 -5.5
v 7 4 -5.5
v 8 4 -5.5
v 9 4 -5.5
v -2 4 -6.5
v -1 4 -6.5
v 7 4 -6.5
v 8 4 -6.5
v -2 5 6.5
v -1 5 6.5
v 1 5 6.5
v 2 5 6.5
v -2 5 5.5
v -1 5 5.5
v 1 5 5.5
v 2 5 5.5
v -2 5 -4.5
v -1 5 -4.5
v 7 5 -4.5
v 8 5 -4.5
v -2 5 -5.5
v -1 5 -5.5
v 7 5 -5.5
v 8 5 -5.5

# faces
f 3/3/1 2/3/1 1/3/1
f 4/3/1 2/3/1 3/3/1
f 5/3/1 3/3/1 1/3/1
f 6/3/1 2/3/1 4/3/1
f 7/3/1 5/3/1 1/3/1
f 7/3/1 6/3/1 5/3/1
f 8/3/1 2/3/1 6/3/1
f 8/3/1 6/3/1 7/3/1
f 11/3/1 10/3/1 9/3/1
f 12/3/1 10/3/1 11/3/1
f 17/2/1 15/2/1 14/2/1
f 18/1/1 16/1/1 15/1/1
f 18/2/1 15/2/1 17/2/1
f 19/1/1 16/1/1 18/1/1
f 22/1/1 14/1/1 13/1/1
f 22/2/1 17/2/1 14/2/1
f 23/1/1 18/1/1 17/1/1
f 23/2/1 17/2/1 22/2/1
f 24/1/1 18/1/1 23/1/1
f 26/3/1 21/3/1 20/3/1
f 27/3/1 21/3/1 26/3/1
f 29/1/1 22/1/1 13/1/1
f 30/1/1 22/1/1 29/1/1
f 31/2/1 30/2/1 29/2/1
f 32/2/1 30/2/1 31/2/1
f 33/3/1 26/3/1 25/3/1
f 34/3/1 26/3/1 33/3/1
f 35/3/1 28/3/1 27/3/1
f 36/3/1 28/3/1 35/3/1
f 37/1/1 32/1/1 31/1/1
f 38/1/1 32/1/1 37/1/1
f 39/3/1 35/3/1 34/3/1
f 40/3/1 35/3/1 39/3/1
f 44/2/1 42/2/1 41/2/1
f 45/1/1 43/1/1 42/1/1
f 45/2/1 42/2/1 44/2/1
f 46/1/1 43/1/1 45/1/1
f 47/1/1 43/1/1 46/1/1
f 49/1/1 46/1/1 45/1/1
f 50/1/1 46/1/1 49/1/1
f 51/1/1 49/1/1 48/1/1
f 52/1/1 49/1/1 51/1/1
f 55/2/1 54/2/1 53/2/1
f 56/2/1 54/2/1 55/2/1
f 59/4/1 58/4/1 57/4/1
f 60/4/1 58/4/1 59/4/1
f 63/3/1 62/3/1 61/3/1
f 64/3/1 62/3/1 63/3/1
f 68/3/1 66/3/1 65/3/1
f 69/3/1 66/3/1 68/3/1
f 71/3/1 68/3/1 67/3/1
f 72/3/1 68/3/1 71/3/1
f 73/3/1 70/3/1 69/3/1
f 74/3/1 70/3/1 73/3/1
f 75/3/1 73/3/1 72/3/1
f 76/3/1 73/3/1 75/3/1
f 77/1/2 78/1/2 81/1/2
f 78/2/2 79/2/2 82/2/2
f 81/1/2 78/1/2 82/1/2
f 82/2/2 79/2/2 83/2/2
f 79/1/2 80/1/2 84/1/2
f 83/2/2 79/2/2 84/2/2
f 84/1/2 80/1/2 85/1/2
f 82/2/2 83/2/2 89/2/2
f 83/1/2 84/1/2 90/1/2
f 89/2/2 83/2/2 90/2/2
f 90/1/2 84/1/2 91/1/2
f 86/3/2 87/3/2 93/3/2
f 93/3/2 87/3/2 94/3/2
f 88/1/2 89/1/2 96/1/2
f 96/1/2 89/1/2 97/1/2
f 92/3/2 93/3/2 100/3/2
f 100/3/2 93/3/2 101/3/2
f 94/3/2 95/3/2 102/3/2
f 102/3/2 95/3/2 103/3/2
f 98/1/2 99/1/2 104/1/2
f 104/1/2 99/1/2 105/1/2
f 101/3/2 102/3/2 106/3/2
f 106/3/2 102/3/2 107/3/2
f 108/3/2 109/3/2 110/3/2
f 110/3/2 109/3/2 111/3/2
f 112/2/2 113/2/2 115/2/2
f 113/1/2 114/1/2 116/1/2
f 115/2/2 113/2/2 116/2/2
f 116/1/2 114/1/2 117/1/2
f 117/1/2 114/1/2 118/1/2
f 115/1/2 116/1/2 119/1/2
f 116/1/2 117/1/2 119/1/2
f 119/1/2 117/1/2 120/1/2
f 115/1/2 119/1/2 121/1/2
f 121/1/2 119/1/2 122/1/2
f 121/2/2 122/2/2 123/2/2
f 123/2/2 122/2/2 124/2/2
f 125/4/2 126/4/2 127/4/2
f 127/4/2 126/4/2 128/4/2
f 129/3/2 130/3/2 131/3/2
f 131/3/2 130/3/2 132/3/2
f 129/3/2 131/3/2 133/3/2
f 132/3/2 130/3/2 134/3/2
f 129/3/2 133/3/2 135/3/2
f 133/3/2 134/3/2 135/3/2
f 134/3/2 130/3/2 136/3/2
f 135/3/2 134/3/2 136/3/2
f 137/3/2 138/3/2 140/3/2
f 140/3/2 138/3/2 141/3/2
f 139/3/2 140/3/2 143/3/2
f 143/3/2 140/3/2 144/3/2
f 141/3/2 142/3/2 145/3/2
f 145/3/2 142/3/2 146/3/2
f 144/3/2 145/3/2 147/3/2
f 147/3/2 145/3/2 148/3/2
f 149/3/2 150/3/2 151/3/2
f 151/3/2 150/3/2 152/3/2
f 157/1/3 154/1/3 153/1/3
f 158/1/3 154/1/3 157/1/3
f 159/1/3 154/1/3 158/1/3
f 160/2/3 155/2/3 154/2/3
f 160/1/3 154/1/3 159/1/3
f 161/1/3 156/1/3 155/1/3
f 161/2/3 155/2/3 160/2/3
f 162/1/3 156/1/3 161/1/3
f 163/2/3 159/2/3 158/2/3
f 164/2/3 159/2/3 163/2/3
f 166/1/3 164/1/3 163/1/3
f 167/1/3 164/1/3 166/1/3
f 168/1/3 161/1/3 160/1/3
f 169/1/3 161/1/3 168/1/3
f 171/2/3 166/2/3 165/2/3
f 172/1/3 167/1/3 166/1/3
f 172/2/3 166/2/3 171/2/3
f 172/1/3 168/1/3 167/1/3
f 172/1/3 169/1/3 168/1/3
f 173/2/3 170/2/3 169/2/3
f 173/1/3 169/1/3 172/1/3
f 174/2/3 170/2/3 173/2/3
f 177/3/3 176/3/3 175/3/3
f 178/3/3 176/3/3 177/3/3
f 181/3/3 180/3/3 179/3/3
f 182/3/3 180/3/3 181/3/3
f 185/3/3 184/3/3 183/3/3
f 186/3/3 184/3/3 185/3/3
f 189/3/3 188/3/3 187/3/3
f 190/3/3 188/3/3 189/3/3
f 194/3/3 192/3/3 191/3/3
f 195/3/3 192/3/3 194/3/3
f 197/3/3 194/3/3 193/3/3
f 198/3/3 194/3/3 197/3/3
f 199/3/3 196/3/3 195/3/3
f 200/3/3 196/3/3 199/3/3
f 201/3/3 199/3/3 198/3/3
f 202/3/3 199/3/3 201/3/3
f 203/3/3 199/3/3 202/3/3
f 204/4/3 202/4/3 201/4/3
f 205/4/3 202/4/3 204/4/3
f 208/3/3 205/3/3 204/3/3
f 208/3/3 206/3/3 205/3/3
f 209/3/3 206/3/3 208/3/3
f 211/3/3 208/3/3 207/3/3
f 212/3/3 208/3/3 211/3/3
f 213/3/3 210/3/3 209/3/3
f 214/3/3 210/3/3 213/3/3
f 215/3/3 213/3/3 212/3/3
f 216/3/3 213/3/3 215/3/3
f 217/1/4 218/1/4 222/1/4
f 218/2/4 219/2/4 223/2/4
f 222/1/4 218/1/4 223/1/4
f 219/1/4 220/1/4 224/1/4
f 223/2/4 219/2/4 224/2/4
f 224/1/4 220/1/4 225/1/4
f 221/2/4 222/2/4 226/2/4
f 226/2/4 222/2/4 227/2/4
f 226/1/4 227/1/4 228/1/4
f 228/1/4 227/1/4 229/1/4
f 223/1/4 224/1/4 230/1/4
f 230/1/4 224/1/4 231/1/4
f 229/1/4 230/1/4 233/1/4
f 230/1/4 231/1/4 233/1/4
f 231/2/4 232/2/4 234/2/4
f 233/1/4 231/1/4 234/1/4
f 234/2/4 232/2/4 235/2/4
f 236/1/4 237/1/4 238/1/4
f 238/1/4 237/1/4 239/1/4
f 240/1/4 241/1/4 242/1/4
f 242/1/4 241/1/4 243/1/4
f 244/1/4 245/1/4 246/1/4
f 246/1/4 245/1/4 247/1/4
f 248/1/4 249/1/4 250/1/4
f 250/1/4 249/1/4 251/1/4
f 252/3/4 253/3/4 254/3/4
f 254/3/4 253/3/4 255/3/4
f 256/3/4 257/3/4 258/3/4
f 258/3/4 257/3/4 259/3/4
f 260/3/4 261/3/4 263/3/4
f 263/3/4 261/3/4 264/3/4
f 262/3/4 263/3/4 266/3/4
f 266/3/4 263/3/4 267/3/4
f 264/3/4 265/3/4 268/3/4
f 268/3/4 265/3/4 269/3/4
f 267/3/4 268/3/4 270/3/4
f 270/3/4 268/3/4 271/3/4
f 271/3/4 268/3/4 272/3/4
f 270/4/4 271/4/4 273/4/4
f 273/4/4 271/4/4 274/4/4
f 275/4/4 276/4/4 277/4/4
f 277/4/4 276/4/4 278/4/4
f 277/3/4 278/3/4 281/3/4
f 278/3/4 279/3/4 281/3/4
f 281/3/4 279/3/4 282/3/4
f 280/3/4 281/3/4 284/3/4
f 284/3/4 281/3/4 285/3/4
f 282/3/4 283/3/4 286/3/4
f 286/3/4 283/3/4 287/3/4
f 285/3/4 286/3/4 288/3/4
f 288/3/4 286/3/4 289/3/4
f 290/3/4 291/3/4 292/3/4
f 292/3/4 291/3/4 293/3/4
f 294/4/4 295/4/4 296/4/4
f 296/4/4 295/4/4 297/4/4
f 298/3/4 299/3/4 300/3/4
f 300/3/4 299/3/4 301/3/4
f 306/1/5 303/1/5 302/1/5
f 307/1/5 303/1/5 306/1/5
f 308/2/5 305/2/5 304/2/5
f 309/2/5 305/2/5 308/2/5
f 310/2/5 307/2/5 306/2/5
f 311/2/5 307/2/5 310/2/5
f 312/1/5 311/1/5 310/1/5
f 313/1/5 311/1/5 312/1/5
f 314/1/5 309/1/5 308/1/5
f 315/1/5 309/1/5 314/1/5
f 318/3/5 317/3/5 316/3/5
f 319/3/5 317/3/5 318/3/5
f 323/2/5 321/2/5 320/2/5
f 324/1/5 322/1/5 321/1/5
f 324/2/5 321/2/5 323/2/5
f 325/1/5 322/1/5 324/1/5
f 330/3/5 327/3/5 326/3/5
f 331/3/5 327/3/5 330/3/5
f 332/3/5 329/3/5 328/3/5
f 333/3/5 329/3/5 332/3/5
f 336/3/5 335/3/5 334/3/5
f 337/3/5 335/3/5 336/3/5
f 343/3/5 339/3/5 338/3/5
f 344/3/5 339/3/5 343/3/5
f 347/3/5 341/3/5 340/3/5
f 348/3/5 341/3/5 347/3/5
f 350/3/5 343/3/5 342/3/5
f 351/3/5 343/3/5 350/3/5
f 352/3/5 345/3/5 344/3/5
f 353/4/5 346/4/5 345/4/5
f 353/3/5 345/3/5 352/3/5
f 354/4/5 346/4/5 353/4/5
f 355/4/5 346/4/5 354/4/5
f 356/3/5 347/3/5 346/3/5
f 356/4/5 346/4/5 355/4/5
f 357/3/5 347/3/5 356/3/5
f 358/3/5 349/3/5 348/3/5
f 359/3/5 349/3/5 358/3/5
f 360/3/5 352/3/5 351/3/5
f 361/3/5 352/3/5 360/3/5
f 362/4/5 355/4/5 354/4/5
f 363/4/5 355/4/5 362/4/5
f 364/3/5 358/3/5 357/3/5
f 365/3/5 358/3/5 364/3/5
f 368/1/5 367/1/5 366/1/5
f 369/1/5 367/1/5 368/1/5
f 370/1/6 371/1/6 374/1/6
f 374/1/6 371/1/6 375/1/6
f 372/1/6 373/1/6 376/1/6
f 376/1/6 373/1/6 377/1/6
f 378/3/6 379/3/6 380/3/6
f 380/3/6 379/3/6 381/3/6
f 382/2/6 383/2/6 386/2/6
f 383/1/6 384/1/6 387/1/6
f 386/2/6 383/2/6 387/2/6
f 387/1/6 384/1/6 388/1/6
f 385/2/6 386/2/6 390/2/6
f 390/2/6 386/2/6 391/2/6
f 390/1/6 391/1/6 392/1/6
f 392/1/6 391/1/6 393/1/6
f 388/1/6 389/1/6 394/1/6
f 394/1/6 389/1/6 395/1/6
f 396/3/6 397/3/6 398/3/6
f 398/3/6 397/3/6 399/3/6
f 400/4/6 401/4/6 402/4/6
f 402/4/6 401/4/6 403/4/6
f 403/4/6 401/4/6 404/4/6
f 404/4/6 401/4/6 405/4/6
f 403/4/6 404/4/6 406/4/6
f 406/4/6 404/4/6 407/4/6
f 408/1/6 409/1/6 410/1/6
f 410/1/6 409/1/6 411/1/6
f 412/3/6 413/3/6 417/3/6
f 417/3/6 413/3/6 418/3/6
f 414/3/6 415/3/6 421/3/6
f 421/3/6 415/3/6 422/3/6
f 416/3/6 417/3/6 424/3/6
f 424/3/6 417/3/6 425/3/6
f 418/3/6 419/3/6 426/3/6
f 426/3/6 419/3/6 427/3/6
f 420/3/6 421/3/6 428/3/6
f 428/3/6 421/3/6 429/3/6
f 422/3/6 423/3/6 430/3/6
f 430/3/6 423/3/6 431/3/6
f 425/3/6 426/3/6 432/3/6
f 432/3/6 426/3/6 433/3/6
f 429/3/6 430/3/6 434/3/6
f 434/3/6 430/3/6 435/3/6
f 436/1/6 437/1/6 440/1/6
f 440/1/6 437/1/6 441/1/6
f 438/2/6 439/2/6 442/2/6
f 442/2/6 439/2/6 443/2/6
f 444/3/6 445/3/6 448/3/6
f 448/3/6 445/3/6 449/3/6
f 446/3/6 447/3/6 450/3/6
f 450/3/6 447/3/6 451/3/6
