# MagicaVoxel @ Ephtracy

# group
g bookcase3

# material
mtllib bookcase3.mtl
usemtl palette

# normals
vn -1 0 0
vn 1 0 0
vn 0 0 1
vn 0 0 -1
vn 0 -1 0
vn 0 1 0

# texcoords
vt 0.177734 0.5
vt 0.228516 0.5
vt 0.369141 0.5
vt 0.408203 0.5
vt 0.509766 0.5
vt 0.982422 0.5

# verts
v -10 0 5
v -10 0 -5
v -10 40 5
v -10 40 -5
v -3 11 5
v -3 11 -4
v -3 20 5
v -3 20 -4
v -3 21 5
v -3 21 -4
v -3 30 5
v -3 30 -4
v -3 31 5
v -3 31 -4
v -3 39 5
v -3 39 -4
v 6 1 5
v 6 1 -4
v 6 10 5
v 6 10 -4
v 9 11 5
v 9 11 -4
v 9 20 5
v 9 20 -4
v 9 21 5
v 9 21 -4
v 9 30 5
v 9 30 -4
v 9 31 5
v 9 31 -4
v 9 39 5
v 9 39 -4
v -9 1 5
v -9 1 -4
v -9 10 5
v -9 10 -4
v -9 11 5
v -9 11 -4
v -9 20 5
v -9 20 -4
v -9 31 5
v -9 31 -4
v -9 39 5
v -9 39 -4
v -6 21 5
v -6 21 -4
v -6 30 5
v -6 30 -4
v 0 11 5
v 0 11 -4
v 0 20 5
v 0 20 -4
v 0 21 5
v 0 21 -4
v 0 30 5
v 0 30 -4
v 6 31 5
v 6 31 -4
v 6 39 5
v 6 39 -4
v 10 0 5
v 10 0 -5
v 10 40 5
v 10 40 -5
v -10 0 5
v -10 40 5
v -9 1 5
v -9 10 5
v -9 11 5
v -9 20 5
v -9 21 5
v -9 30 5
v -9 31 5
v -9 39 5
v -6 21 5
v -6 30 5
v -3 11 5
v -3 20 5
v -3 21 5
v -3 30 5
v -3 31 5
v -3 39 5
v 0 11 5
v 0 20 5
v 0 21 5
v 0 30 5
v 0 31 5
v 0 39 5
v 3 31 5
v 3 39 5
v 6 1 5
v 6 10 5
v 6 31 5
v 6 39 5
v 9 1 5
v 9 10 5
v 9 11 5
v 9 20 5
v 9 21 5
v 9 30 5
v 9 31 5
v 9 39 5
v 10 0 5
v 10 40 5
v -9 1 -4
v -9 10 -4
v -9 11 -4
v -9 20 -4
v -9 31 -4
v -9 39 -4
v -6 21 -4
v -6 30 -4
v -3 11 -4
v -3 20 -4
v -3 21 -4
v -3 30 -4
v -3 31 -4
v -3 39 -4
v 0 11 -4
v 0 20 -4
v 0 21 -4
v 0 30 -4
v 6 1 -4
v 6 10 -4
v 6 31 -4
v 6 39 -4
v 9 11 -4
v 9 20 -4
v 9 21 -4
v 9 30 -4
v 9 31 -4
v 9 39 -4
v -10 0 -5
v -10 40 -5
v 10 0 -5
v 10 40 -5
v -10 0 5
v 10 0 5
v -10 0 -5
v 10 0 -5
v -9 10 5
v 6 10 5
v -9 10 -4
v 6 10 -4
v -9 20 5
v -3 20 5
v 0 20 5
v 9 20 5
v -9 20 -4
v -3 20 -4
v 0 20 -4
v 9 20 -4
v -6 30 5
v -3 30 5
v 0 30 5
v 9 30 5
v -6 30 -4
v -3 30 -4
v 0 30 -4
v 9 30 -4
v -9 39 5
v -3 39 5
v 6 39 5
v 9 39 5
v -9 39 -4
v -3 39 -4
v 6 39 -4
v 9 39 -4
v -9 1 5
v 6 1 5
v -9 1 -4
v 6 1 -4
v -9 11 5
v -3 11 5
v 0 11 5
v 9 11 5
v -9 11 -4
v -3 11 -4
v 0 11 -4
v 9 11 -4
v -6 21 5
v -3 21 5
v 0 21 5
v 9 21 5
v -6 21 -4
v -3 21 -4
v 0 21 -4
v 9 21 -4
v -9 31 5
v -3 31 5
v 6 31 5
v 9 31 5
v -9 31 -4
v -3 31 -4
v 6 31 -4
v 9 31 -4
v -10 40 5
v 10 40 5
v -10 40 -5
v 10 40 -5

# faces
f 3/3/1 2/3/1 1/3/1
f 4/3/1 2/3/1 3/3/1
f 7/4/1 6/4/1 5/4/1
f 8/4/1 6/4/1 7/4/1
f 11/1/1 10/1/1 9/1/1
f 12/1/1 10/1/1 11/1/1
f 15/5/1 14/5/1 13/5/1
f 16/5/1 14/5/1 15/5/1
f 19/4/1 18/4/1 17/4/1
f 20/4/1 18/4/1 19/4/1
f 23/3/1 22/3/1 21/3/1
f 24/3/1 22/3/1 23/3/1
f 27/3/1 26/3/1 25/3/1
f 28/3/1 26/3/1 27/3/1
f 31/3/1 30/3/1 29/3/1
f 32/3/1 30/3/1 31/3/1
f 33/3/2 34/3/2 35/3/2
f 35/3/2 34/3/2 36/3/2
f 37/3/2 38/3/2 39/3/2
f 39/3/2 38/3/2 40/3/2
f 41/3/2 42/3/2 43/3/2
f 43/3/2 42/3/2 44/3/2
f 45/2/2 46/2/2 47/2/2
f 47/2/2 46/2/2 48/2/2
f 49/4/2 50/4/2 51/4/2
f 51/4/2 50/4/2 52/4/2
f 53/1/2 54/1/2 55/1/2
f 55/1/2 54/1/2 56/1/2
f 57/6/2 58/6/2 59/6/2
f 59/6/2 58/6/2 60/6/2
f 61/3/2 62/3/2 63/3/2
f 63/3/2 62/3/2 64/3/2
f 67/3/3 66/3/3 65/3/3
f 68/3/3 66/3/3 67/3/3
f 69/3/3 66/3/3 68/3/3
f 70/3/3 66/3/3 69/3/3
f 71/3/3 66/3/3 70/3/3
f 72/3/3 66/3/3 71/3/3
f 73/3/3 66/3/3 72/3/3
f 74/3/3 66/3/3 73/3/3
f 75/3/3 71/3/3 70/3/3
f 75/2/3 72/2/3 71/2/3
f 76/3/3 73/3/3 72/3/3
f 76/2/3 72/2/3 75/2/3
f 77/3/3 69/3/3 68/3/3
f 78/3/3 75/3/3 70/3/3
f 79/3/3 75/3/3 78/3/3
f 80/3/3 73/3/3 76/3/3
f 81/3/3 73/3/3 80/3/3
f 82/3/3 66/3/3 74/3/3
f 83/3/3 77/3/3 68/3/3
f 83/4/3 78/4/3 77/4/3
f 84/3/3 79/3/3 78/3/3
f 84/4/3 78/4/3 83/4/3
f 85/1/3 80/1/3 79/1/3
f 85/3/3 79/3/3 84/3/3
f 86/3/3 81/3/3 80/3/3
f 86/1/3 80/1/3 85/1/3
f 87/5/3 82/5/3 81/5/3
f 87/3/3 81/3/3 86/3/3
f 88/3/3 66/3/3 82/3/3
f 88/5/3 82/5/3 87/5/3
f 89/3/3 87/3/3 86/3/3
f 89/2/3 88/2/3 87/2/3
f 90/3/3 66/3/3 88/3/3
f 90/2/3 88/2/3 89/2/3
f 91/3/3 67/3/3 65/3/3
f 92/3/3 83/3/3 68/3/3
f 93/3/3 89/3/3 86/3/3
f 93/6/3 90/6/3 89/6/3
f 94/3/3 66/3/3 90/3/3
f 94/6/3 90/6/3 93/6/3
f 95/3/3 91/3/3 65/3/3
f 95/4/3 92/4/3 91/4/3
f 96/3/3 83/3/3 92/3/3
f 96/4/3 92/4/3 95/4/3
f 97/3/3 83/3/3 96/3/3
f 98/3/3 85/3/3 84/3/3
f 99/3/3 85/3/3 98/3/3
f 100/3/3 93/3/3 86/3/3
f 101/3/3 93/3/3 100/3/3
f 102/3/3 66/3/3 94/3/3
f 103/3/3 99/3/3 98/3/3
f 103/3/3 102/3/3 101/3/3
f 103/3/3 97/3/3 96/3/3
f 103/3/3 101/3/3 100/3/3
f 103/3/3 100/3/3 99/3/3
f 103/3/3 95/3/3 65/3/3
f 103/3/3 98/3/3 97/3/3
f 103/3/3 96/3/3 95/3/3
f 104/3/3 66/3/3 102/3/3
f 104/3/3 102/3/3 103/3/3
f 113/3/3 108/3/3 107/3/3
f 114/3/3 108/3/3 113/3/3
f 115/3/3 112/3/3 111/3/3
f 116/3/3 112/3/3 115/3/3
f 117/3/3 110/3/3 109/3/3
f 118/3/3 110/3/3 117/3/3
f 123/3/3 106/3/3 105/3/3
f 124/3/3 106/3/3 123/3/3
f 127/3/3 120/3/3 119/3/3
f 128/3/3 120/3/3 127/3/3
f 129/3/3 122/3/3 121/3/3
f 130/3/3 122/3/3 129/3/3
f 131/3/3 126/3/3 125/3/3
f 132/3/3 126/3/3 131/3/3
f 133/3/4 134/3/4 135/3/4
f 135/3/4 134/3/4 136/3/4
f 139/3/5 138/3/5 137/3/5
f 140/3/5 138/3/5 139/3/5
f 143/3/5 142/3/5 141/3/5
f 144/3/5 142/3/5 143/3/5
f 149/3/5 146/3/5 145/3/5
f 150/3/5 146/3/5 149/3/5
f 151/3/5 148/3/5 147/3/5
f 152/3/5 148/3/5 151/3/5
f 157/3/5 154/3/5 153/3/5
f 158/3/5 154/3/5 157/3/5
f 159/3/5 156/3/5 155/3/5
f 160/3/5 156/3/5 159/3/5
f 165/3/5 162/3/5 161/3/5
f 166/3/5 162/3/5 165/3/5
f 167/3/5 164/3/5 163/3/5
f 168/3/5 164/3/5 167/3/5
f 169/3/6 170/3/6 171/3/6
f 171/3/6 170/3/6 172/3/6
f 173/3/6 174/3/6 177/3/6
f 177/3/6 174/3/6 178/3/6
f 175/3/6 176/3/6 179/3/6
f 179/3/6 176/3/6 180/3/6
f 181/3/6 182/3/6 185/3/6
f 185/3/6 182/3/6 186/3/6
f 183/3/6 184/3/6 187/3/6
f 187/3/6 184/3/6 188/3/6
f 189/3/6 190/3/6 193/3/6
f 193/3/6 190/3/6 194/3/6
f 191/3/6 192/3/6 195/3/6
f 195/3/6 192/3/6 196/3/6
f 197/3/6 198/3/6 199/3/6
f 199/3/6 198/3/6 200/3/6
