# MagicaVoxel @ Ephtracy

# group
g bookcase4

# material
mtllib bookcase4.mtl
usemtl palette

# normals
vn -1 0 0
vn 1 0 0
vn 0 0 1
vn 0 0 -1
vn 0 -1 0
vn 0 1 0

# texcoords
vt 0.228516 0.5
vt 0.369141 0.5
vt 0.408203 0.5
vt 0.861328 0.5

# verts
v -10 0 5
v -10 0 -5
v -10 40 5
v -10 40 -5
v -3 11 5
v -3 11 -4
v -3 20 5
v -3 20 -4
v 6 1 5
v 6 1 -4
v 6 10 5
v 6 10 -4
v 9 11 5
v 9 11 -4
v 9 20 5
v 9 20 -4
v 9 21 5
v 9 21 -4
v 9 30 5
v 9 30 -4
v 9 31 5
v 9 31 -4
v 9 39 5
v 9 39 -4
v -9 1 5
v -9 1 -4
v -9 10 5
v -9 10 -4
v -9 11 5
v -9 11 -4
v -9 20 5
v -9 20 -4
v -9 31 5
v -9 31 -4
v -9 39 5
v -9 39 -4
v -6 21 5
v -6 21 -4
v -6 30 5
v -6 30 -4
v 0 11 5
v 0 11 -4
v 0 20 5
v 0 20 -4
v 10 0 5
v 10 0 -5
v 10 40 5
v 10 40 -5
v -10 0 5
v -10 40 5
v -9 1 5
v -9 10 5
v -9 11 5
v -9 20 5
v -9 21 5
v -9 30 5
v -9 31 5
v -9 39 5
v -6 21 5
v -6 30 5
v -3 11 5
v -3 20 5
v 0 11 5
v 0 20 5
v 6 1 5
v 6 10 5
v 9 1 5
v 9 10 5
v 9 11 5
v 9 20 5
v 9 21 5
v 9 30 5
v 9 31 5
v 9 39 5
v 10 0 5
v 10 40 5
v -9 1 -4
v -9 10 -4
v -9 11 -4
v -9 20 -4
v -9 31 -4
v -9 39 -4
v -6 21 -4
v -6 30 -4
v -3 11 -4
v -3 20 -4
v 0 11 -4
v 0 20 -4
v 6 1 -4
v 6 10 -4
v 9 11 -4
v 9 20 -4
v 9 21 -4
v 9 30 -4
v 9 31 -4
v 9 39 -4
v -10 0 -5
v -10 40 -5
v 10 0 -5
v 10 40 -5
v -10 0 5
v 10 0 5
v -10 0 -5
v 10 0 -5
v -9 10 5
v 6 10 5
v -9 10 -4
v 6 10 -4
v -9 20 5
v -3 20 5
v 0 20 5
v 9 20 5
v -9 20 -4
v -3 20 -4
v 0 20 -4
v 9 20 -4
v -6 30 5
v 9 30 5
v -6 30 -4
v 9 30 -4
v -9 39 5
v 9 39 5
v -9 39 -4
v 9 39 -4
v -9 1 5
v 6 1 5
v -9 1 -4
v 6 1 -4
v -9 11 5
v -3 11 5
v 0 11 5
v 9 11 5
v -9 11 -4
v -3 11 -4
v 0 11 -4
v 9 11 -4
v -6 21 5
v 9 21 5
v -6 21 -4
v 9 21 -4
v -9 31 5
v 9 31 5
v -9 31 -4
v 9 31 -4
v -10 40 5
v 10 40 5
v -10 40 -5
v 10 40 -5

# faces
f 3/2/1 2/2/1 1/2/1
f 4/2/1 2/2/1 3/2/1
f 7/4/1 6/4/1 5/4/1
f 8/4/1 6/4/1 7/4/1
f 11/3/1 10/3/1 9/3/1
f 12/3/1 10/3/1 11/3/1
f 15/2/1 14/2/1 13/2/1
f 16/2/1 14/2/1 15/2/1
f 19/2/1 18/2/1 17/2/1
f 20/2/1 18/2/1 19/2/1
f 23/2/1 22/2/1 21/2/1
f 24/2/1 22/2/1 23/2/1
f 25/2/2 26/2/2 27/2/2
f 27/2/2 26/2/2 28/2/2
f 29/2/2 30/2/2 31/2/2
f 31/2/2 30/2/2 32/2/2
f 33/2/2 34/2/2 35/2/2
f 35/2/2 34/2/2 36/2/2
f 37/1/2 38/1/2 39/1/2
f 39/1/2 38/1/2 40/1/2
f 41/4/2 42/4/2 43/4/2
f 43/4/2 42/4/2 44/4/2
f 45/2/2 46/2/2 47/2/2
f 47/2/2 46/2/2 48/2/2
f 51/2/3 50/2/3 49/2/3
f 52/2/3 50/2/3 51/2/3
f 53/2/3 50/2/3 52/2/3
f 54/2/3 50/2/3 53/2/3
f 55/2/3 50/2/3 54/2/3
f 56/2/3 50/2/3 55/2/3
f 57/2/3 50/2/3 56/2/3
f 58/2/3 50/2/3 57/2/3
f 59/2/3 55/2/3 54/2/3
f 59/1/3 56/1/3 55/1/3
f 60/2/3 57/2/3 56/2/3
f 60/1/3 56/1/3 59/1/3
f 61/2/3 53/2/3 52/2/3
f 62/2/3 59/2/3 54/2/3
f 63/2/3 61/2/3 52/2/3
f 63/4/3 62/4/3 61/4/3
f 64/2/3 59/2/3 62/2/3
f 64/4/3 62/4/3 63/4/3
f 65/2/3 51/2/3 49/2/3
f 66/2/3 63/2/3 52/2/3
f 67/2/3 65/2/3 49/2/3
f 67/3/3 66/3/3 65/3/3
f 68/2/3 63/2/3 66/2/3
f 68/3/3 66/3/3 67/3/3
f 69/2/3 63/2/3 68/2/3
f 70/2/3 59/2/3 64/2/3
f 71/2/3 59/2/3 70/2/3
f 72/2/3 57/2/3 60/2/3
f 73/2/3 57/2/3 72/2/3
f 74/2/3 50/2/3 58/2/3
f 75/2/3 69/2/3 68/2/3
f 75/2/3 74/2/3 73/2/3
f 75/2/3 73/2/3 72/2/3
f 75/2/3 71/2/3 70/2/3
f 75/2/3 72/2/3 71/2/3
f 75/2/3 67/2/3 49/2/3
f 75/2/3 70/2/3 69/2/3
f 75/2/3 68/2/3 67/2/3
f 76/2/3 50/2/3 74/2/3
f 76/2/3 74/2/3 75/2/3
f 85/2/3 80/2/3 79/2/3
f 86/2/3 80/2/3 85/2/3
f 89/2/3 78/2/3 77/2/3
f 90/2/3 78/2/3 89/2/3
f 91/2/3 88/2/3 87/2/3
f 92/2/3 88/2/3 91/2/3
f 93/2/3 84/2/3 83/2/3
f 94/2/3 84/2/3 93/2/3
f 95/2/3 82/2/3 81/2/3
f 96/2/3 82/2/3 95/2/3
f 97/2/4 98/2/4 99/2/4
f 99/2/4 98/2/4 100/2/4
f 103/2/5 102/2/5 101/2/5
f 104/2/5 102/2/5 103/2/5
f 107/2/5 106/2/5 105/2/5
f 108/2/5 106/2/5 107/2/5
f 113/2/5 110/2/5 109/2/5
f 114/2/5 110/2/5 113/2/5
f 115/2/5 112/2/5 111/2/5
f 116/2/5 112/2/5 115/2/5
f 119/2/5 118/2/5 117/2/5
f 120/2/5 118/2/5 119/2/5
f 123/2/5 122/2/5 121/2/5
f 124/2/5 122/2/5 123/2/5
f 125/2/6 126/2/6 127/2/6
f 127/2/6 126/2/6 128/2/6
f 129/2/6 130/2/6 133/2/6
f 133/2/6 130/2/6 134/2/6
f 131/2/6 132/2/6 135/2/6
f 135/2/6 132/2/6 136/2/6
f 137/2/6 138/2/6 139/2/6
f 139/2/6 138/2/6 140/2/6
f 141/2/6 142/2/6 143/2/6
f 143/2/6 142/2/6 144/2/6
f 145/2/6 146/2/6 147/2/6
f 147/2/6 146/2/6 148/2/6
