# MagicaVoxel @ Ephtracy

# group
g bookcase2

# material
mtllib bookcase2.mtl
usemtl palette

# normals
vn -1 0 0
vn 1 0 0
vn 0 0 1
vn 0 0 -1
vn 0 -1 0
vn 0 1 0

# texcoords
vt 0.177734 0.5
vt 0.228516 0.5
vt 0.369141 0.5
vt 0.376953 0.5
vt 0.408203 0.5
vt 0.509766 0.5
vt 0.533203 0.5
vt 0.861328 0.5
vt 0.900391 0.5
vt 0.931641 0.5
vt 0.982422 0.5

# verts
v -10 0 5
v -10 0 -5
v -10 40 5
v -10 40 -5
v -3 11 4
v -3 11 -4
v -3 20 4
v -3 20 -4
v -3 21 5
v -3 21 -4
v -3 30 5
v -3 30 -4
v 6 1 5
v 6 1 -4
v 6 10 5
v 6 10 -4
v 9 11 5
v 9 11 -4
v 9 20 5
v 9 20 -4
v 9 21 4
v 9 21 -4
v 9 30 4
v 9 30 -4
v 9 31 5
v 9 31 -4
v 9 39 5
v 9 39 -4
v -9 11 4
v -9 11 -4
v -9 20 4
v -9 20 -4
v -6 1 5
v -6 1 -4
v -6 10 5
v -6 10 -4
v -6 21 5
v -6 21 -4
v -6 30 5
v -6 30 -4
v 0 11 5
v 0 11 -4
v 0 20 5
v 0 20 -4
v 0 21 4
v 0 21 -4
v 0 30 4
v 0 30 -4
v 6 31 5
v 6 31 -4
v 6 39 5
v 6 39 -4
v 10 0 5
v 10 0 -5
v 10 40 5
v 10 40 -5
v -10 0 5
v -10 40 5
v -9 1 5
v -9 10 5
v -9 11 5
v -9 20 5
v -9 21 5
v -9 30 5
v -9 31 5
v -9 39 5
v -6 1 5
v -6 10 5
v -6 11 5
v -6 20 5
v -6 21 5
v -6 30 5
v -6 31 5
v -6 39 5
v -3 11 5
v -3 20 5
v -3 21 5
v -3 30 5
v -3 31 5
v -3 39 5
v 0 11 5
v 0 20 5
v 0 21 5
v 0 30 5
v 0 31 5
v 0 39 5
v 3 21 5
v 3 30 5
v 3 31 5
v 3 39 5
v 6 1 5
v 6 10 5
v 6 21 5
v 6 30 5
v 6 31 5
v 6 39 5
v 9 1 5
v 9 10 5
v 9 11 5
v 9 20 5
v 9 21 5
v 9 30 5
v 9 31 5
v 9 39 5
v 10 0 5
v 10 40 5
v -9 11 -4
v -9 20 -4
v -6 1 -4
v -6 10 -4
v -6 21 -4
v -6 30 -4
v -3 11 -4
v -3 20 -4
v -3 21 -4
v -3 30 -4
v 0 11 -4
v 0 20 -4
v 0 21 -4
v 0 30 -4
v 6 1 -4
v 6 10 -4
v 6 31 -4
v 6 39 -4
v 9 11 -4
v 9 20 -4
v 9 21 -4
v 9 30 -4
v 9 31 -4
v 9 39 -4
v -9 11 4
v -9 20 4
v -6 11 4
v -6 20 4
v -3 11 4
v -3 20 4
v 0 21 4
v 0 30 4
v 3 21 4
v 3 30 4
v 6 21 4
v 6 30 4
v 9 21 4
v 9 30 4
v -10 0 -5
v -10 40 -5
v 10 0 -5
v 10 40 -5
v -10 0 5
v 10 0 5
v -10 0 -5
v 10 0 -5
v -6 10 5
v 6 10 5
v -6 10 -4
v 6 10 -4
v 0 20 5
v 9 20 5
v -9 20 4
v -6 20 4
v -3 20 4
v -9 20 -4
v -3 20 -4
v 0 20 -4
v 9 20 -4
v -6 30 5
v -3 30 5
v 0 30 4
v 3 30 4
v 6 30 4
v 9 30 4
v -6 30 -4
v -3 30 -4
v 0 30 -4
v 9 30 -4
v 6 39 5
v 9 39 5
v 6 39 -4
v 9 39 -4
v -6 1 5
v 6 1 5
v -6 1 -4
v 6 1 -4
v 0 11 5
v 9 11 5
v -9 11 4
v -6 11 4
v -3 11 4
v -9 11 -4
v -3 11 -4
v 0 11 -4
v 9 11 -4
v -6 21 5
v -3 21 5
v 0 21 4
v 3 21 4
v 6 21 4
v 9 21 4
v -6 21 -4
v -3 21 -4
v 0 21 -4
v 9 21 -4
v 6 31 5
v 9 31 5
v 6 31 -4
v 9 31 -4
v -10 40 5
v 10 40 5
v -10 40 -5
v 10 40 -5

# faces
f 3/3/1 2/3/1 1/3/1
f 4/3/1 2/3/1 3/3/1
f 7/5/1 6/5/1 5/5/1
f 8/5/1 6/5/1 7/5/1
f 11/1/1 10/1/1 9/1/1
f 12/1/1 10/1/1 11/1/1
f 15/5/1 14/5/1 13/5/1
f 16/5/1 14/5/1 15/5/1
f 19/3/1 18/3/1 17/3/1
f 20/3/1 18/3/1 19/3/1
f 23/3/1 22/3/1 21/3/1
f 24/3/1 22/3/1 23/3/1
f 27/3/1 26/3/1 25/3/1
f 28/3/1 26/3/1 27/3/1
f 29/3/2 30/3/2 31/3/2
f 31/3/2 30/3/2 32/3/2
f 33/8/2 34/8/2 35/8/2
f 35/8/2 34/8/2 36/8/2
f 37/2/2 38/2/2 39/2/2
f 39/2/2 38/2/2 40/2/2
f 41/5/2 42/5/2 43/5/2
f 43/5/2 42/5/2 44/5/2
f 45/1/2 46/1/2 47/1/2
f 47/1/2 46/1/2 48/1/2
f 49/11/2 50/11/2 51/11/2
f 51/11/2 50/11/2 52/11/2
f 53/3/2 54/3/2 55/3/2
f 55/3/2 54/3/2 56/3/2
f 59/3/3 58/3/3 57/3/3
f 60/3/3 58/3/3 59/3/3
f 61/3/3 58/3/3 60/3/3
f 62/3/3 58/3/3 61/3/3
f 63/3/3 58/3/3 62/3/3
f 64/3/3 58/3/3 63/3/3
f 65/3/3 58/3/3 64/3/3
f 66/3/3 58/3/3 65/3/3
f 67/3/3 59/3/3 57/3/3
f 67/8/3 60/8/3 59/8/3
f 68/3/3 61/3/3 60/3/3
f 68/8/3 60/8/3 67/8/3
f 69/4/3 62/4/3 61/4/3
f 69/3/3 61/3/3 68/3/3
f 70/3/3 63/3/3 62/3/3
f 70/4/3 62/4/3 69/4/3
f 71/2/3 64/2/3 63/2/3
f 71/3/3 63/3/3 70/3/3
f 72/3/3 65/3/3 64/3/3
f 72/2/3 64/2/3 71/2/3
f 73/10/3 66/10/3 65/10/3
f 73/3/3 65/3/3 72/3/3
f 74/3/3 58/3/3 66/3/3
f 74/10/3 66/10/3 73/10/3
f 75/3/3 69/3/3 68/3/3
f 75/7/3 70/7/3 69/7/3
f 76/3/3 71/3/3 70/3/3
f 76/7/3 70/7/3 75/7/3
f 77/3/3 71/3/3 76/3/3
f 78/3/3 73/3/3 72/3/3
f 79/8/3 74/8/3 73/8/3
f 79/3/3 73/3/3 78/3/3
f 80/3/3 58/3/3 74/3/3
f 80/8/3 74/8/3 79/8/3
f 81/3/3 75/3/3 68/3/3
f 81/5/3 76/5/3 75/5/3
f 82/3/3 77/3/3 76/3/3
f 82/5/3 76/5/3 81/5/3
f 83/1/3 78/1/3 77/1/3
f 83/3/3 77/3/3 82/3/3
f 84/3/3 79/3/3 78/3/3
f 84/1/3 78/1/3 83/1/3
f 85/6/3 80/6/3 79/6/3
f 85/3/3 79/3/3 84/3/3
f 86/3/3 58/3/3 80/3/3
f 86/6/3 80/6/3 85/6/3
f 87/3/3 83/3/3 82/3/3
f 87/9/3 84/9/3 83/9/3
f 88/3/3 85/3/3 84/3/3
f 88/9/3 84/9/3 87/9/3
f 89/2/3 86/2/3 85/2/3
f 89/3/3 85/3/3 88/3/3
f 90/3/3 58/3/3 86/3/3
f 90/2/3 86/2/3 89/2/3
f 91/3/3 67/3/3 57/3/3
f 92/3/3 81/3/3 68/3/3
f 93/8/3 88/8/3 87/8/3
f 93/3/3 87/3/3 82/3/3
f 94/3/3 89/3/3 88/3/3
f 94/8/3 88/8/3 93/8/3
f 95/11/3 90/11/3 89/11/3
f 95/3/3 89/3/3 94/3/3
f 96/3/3 58/3/3 90/3/3
f 96/11/3 90/11/3 95/11/3
f 97/3/3 91/3/3 57/3/3
f 97/5/3 92/5/3 91/5/3
f 98/3/3 81/3/3 92/3/3
f 98/5/3 92/5/3 97/5/3
f 99/3/3 81/3/3 98/3/3
f 100/3/3 93/3/3 82/3/3
f 101/6/3 94/6/3 93/6/3
f 101/3/3 93/3/3 100/3/3
f 102/3/3 95/3/3 94/3/3
f 102/6/3 94/6/3 101/6/3
f 103/3/3 95/3/3 102/3/3
f 104/3/3 58/3/3 96/3/3
f 105/3/3 103/3/3 102/3/3
f 105/3/3 104/3/3 103/3/3
f 105/3/3 99/3/3 98/3/3
f 105/3/3 101/3/3 100/3/3
f 105/3/3 102/3/3 101/3/3
f 105/3/3 97/3/3 57/3/3
f 105/3/3 98/3/3 97/3/3
f 105/3/3 100/3/3 99/3/3
f 106/3/3 58/3/3 104/3/3
f 106/3/3 104/3/3 105/3/3
f 113/3/3 108/3/3 107/3/3
f 114/3/3 108/3/3 113/3/3
f 115/3/3 112/3/3 111/3/3
f 116/3/3 112/3/3 115/3/3
f 121/3/3 110/3/3 109/3/3
f 122/3/3 110/3/3 121/3/3
f 125/3/3 118/3/3 117/3/3
f 126/3/3 118/3/3 125/3/3
f 127/3/3 120/3/3 119/3/3
f 128/3/3 120/3/3 127/3/3
f 129/3/3 124/3/3 123/3/3
f 130/3/3 124/3/3 129/3/3
f 131/4/4 132/4/4 133/4/4
f 133/4/4 132/4/4 134/4/4
f 133/7/4 134/7/4 135/7/4
f 135/7/4 134/7/4 136/7/4
f 137/9/4 138/9/4 139/9/4
f 139/9/4 138/9/4 140/9/4
f 139/8/4 140/8/4 141/8/4
f 141/8/4 140/8/4 142/8/4
f 141/6/4 142/6/4 143/6/4
f 143/6/4 142/6/4 144/6/4
f 145/3/4 146/3/4 147/3/4
f 147/3/4 146/3/4 148/3/4
f 151/3/5 150/3/5 149/3/5
f 152/3/5 150/3/5 151/3/5
f 155/3/5 154/3/5 153/3/5
f 156/3/5 154/3/5 155/3/5
f 162/3/5 160/3/5 159/3/5
f 162/3/5 161/3/5 160/3/5
f 163/3/5 161/3/5 162/3/5
f 164/3/5 158/3/5 157/3/5
f 165/3/5 158/3/5 164/3/5
f 172/3/5 167/3/5 166/3/5
f 173/3/5 167/3/5 172/3/5
f 174/3/5 171/3/5 170/3/5
f 174/3/5 169/3/5 168/3/5
f 174/3/5 170/3/5 169/3/5
f 175/3/5 171/3/5 174/3/5
f 178/3/5 177/3/5 176/3/5
f 179/3/5 177/3/5 178/3/5
f 180/3/6 181/3/6 182/3/6
f 182/3/6 181/3/6 183/3/6
f 186/3/6 187/3/6 189/3/6
f 187/3/6 188/3/6 189/3/6
f 189/3/6 188/3/6 190/3/6
f 184/3/6 185/3/6 191/3/6
f 191/3/6 185/3/6 192/3/6
f 193/3/6 194/3/6 199/3/6
f 199/3/6 194/3/6 200/3/6
f 197/3/6 198/3/6 201/3/6
f 195/3/6 196/3/6 201/3/6
f 196/3/6 197/3/6 201/3/6
f 201/3/6 198/3/6 202/3/6
f 203/3/6 204/3/6 205/3/6
f 205/3/6 204/3/6 206/3/6
f 207/3/6 208/3/6 209/3/6
f 209/3/6 208/3/6 210/3/6
