# MagicaVoxel @ Ephtracy

# group
g bookcase1

# material
mtllib bookcase1.mtl
usemtl palette

# normals
vn -1 0 0
vn 1 0 0
vn 0 0 1
vn 0 0 -1
vn 0 -1 0
vn 0 1 0

# texcoords
vt 0.177734 0.5
vt 0.201172 0.5
vt 0.228516 0.5
vt 0.369141 0.5
vt 0.376953 0.5
vt 0.408203 0.5
vt 0.509766 0.5
vt 0.533203 0.5
vt 0.654297 0.5
vt 0.861328 0.5
vt 0.900391 0.5
vt 0.931641 0.5
vt 0.982422 0.5

# verts
v -10 0 5
v -10 0 -5
v -10 40 5
v -10 40 -5
v 9 11 4
v 9 11 -4
v 9 20 4
v 9 20 -4
v 9 21 4
v 9 21 -4
v 9 30 4
v 9 30 -4
v 9 31 4
v 9 31 -4
v 9 39 4
v 9 39 -4
v -9 11 4
v -9 11 -4
v -9 20 4
v -9 20 -4
v -9 21 4
v -9 21 -4
v -9 30 4
v -9 30 -4
v -9 31 4
v -9 31 -4
v -9 39 4
v -9 39 -4
v 10 0 5
v 10 0 -5
v 10 40 5
v 10 40 -5
v -10 0 5
v -10 40 5
v -9 1 5
v -9 10 5
v -9 11 5
v -9 20 5
v -9 21 5
v -9 30 5
v -9 31 5
v -9 39 5
v -6 1 5
v -6 10 5
v -6 11 5
v -6 20 5
v -6 21 5
v -6 30 5
v -6 31 5
v -6 39 5
v -3 1 5
v -3 10 5
v -3 11 5
v -3 20 5
v -3 21 5
v -3 30 5
v -3 31 5
v -3 39 5
v 0 1 5
v 0 10 5
v 0 11 5
v 0 20 5
v 0 21 5
v 0 30 5
v 0 31 5
v 0 39 5
v 3 1 5
v 3 10 5
v 3 11 5
v 3 20 5
v 3 21 5
v 3 30 5
v 3 31 5
v 3 39 5
v 6 1 5
v 6 10 5
v 6 11 5
v 6 20 5
v 6 21 5
v 6 30 5
v 6 31 5
v 6 39 5
v 9 1 5
v 9 10 5
v 9 11 5
v 9 20 5
v 9 21 5
v 9 30 5
v 9 31 5
v 9 39 5
v 10 0 5
v 10 40 5
v -9 11 -4
v -9 20 -4
v -9 21 -4
v -9 30 -4
v -9 31 -4
v -9 39 -4
v 9 11 -4
v 9 20 -4
v 9 21 -4
v 9 30 -4
v 9 31 -4
v 9 39 -4
v -9 11 4
v -9 20 4
v -9 21 4
v -9 30 4
v -9 31 4
v -9 39 4
v -6 11 4
v -6 20 4
v -6 21 4
v -6 30 4
v -6 31 4
v -6 39 4
v -3 11 4
v -3 20 4
v -3 21 4
v -3 30 4
v -3 31 4
v -3 39 4
v 0 11 4
v 0 20 4
v 0 21 4
v 0 30 4
v 0 31 4
v 0 39 4
v 3 11 4
v 3 20 4
v 3 21 4
v 3 30 4
v 3 31 4
v 3 39 4
v 6 11 4
v 6 20 4
v 6 21 4
v 6 30 4
v 6 31 4
v 6 39 4
v 9 11 4
v 9 20 4
v 9 21 4
v 9 30 4
v 9 31 4
v 9 39 4
v -10 0 -5
v -10 40 -5
v 10 0 -5
v 10 40 -5
v -10 0 5
v 10 0 5
v -10 0 -5
v 10 0 -5
v -9 20 4
v -6 20 4
v -3 20 4
v 0 20 4
v 3 20 4
v 6 20 4
v 9 20 4
v -9 20 -4
v 9 20 -4
v -9 30 4
v -6 30 4
v -3 30 4
v 0 30 4
v 3 30 4
v 6 30 4
v 9 30 4
v -9 30 -4
v 9 30 -4
v -9 39 4
v -6 39 4
v -3 39 4
v 0 39 4
v 3 39 4
v 6 39 4
v 9 39 4
v -9 39 -4
v 9 39 -4
v -9 11 4
v -6 11 4
v -3 11 4
v 0 11 4
v 3 11 4
v 6 11 4
v 9 11 4
v -9 11 -4
v 9 11 -4
v -9 21 4
v -6 21 4
v -3 21 4
v 0 21 4
v 3 21 4
v 6 21 4
v 9 21 4
v -9 21 -4
v 9 21 -4
v -9 31 4
v -6 31 4
v -3 31 4
v 0 31 4
v 3 31 4
v 6 31 4
v 9 31 4
v -9 31 -4
v 9 31 -4
v -10 40 5
v 10 40 5
v -10 40 -5
v 10 40 -5

# faces
f 3/4/1 2/4/1 1/4/1
f 4/4/1 2/4/1 3/4/1
f 7/4/1 6/4/1 5/4/1
f 8/4/1 6/4/1 7/4/1
f 11/4/1 10/4/1 9/4/1
f 12/4/1 10/4/1 11/4/1
f 15/4/1 14/4/1 13/4/1
f 16/4/1 14/4/1 15/4/1
f 17/4/2 18/4/2 19/4/2
f 19/4/2 18/4/2 20/4/2
f 21/4/2 22/4/2 23/4/2
f 23/4/2 22/4/2 24/4/2
f 25/4/2 26/4/2 27/4/2
f 27/4/2 26/4/2 28/4/2
f 29/4/2 30/4/2 31/4/2
f 31/4/2 30/4/2 32/4/2
f 35/4/3 34/4/3 33/4/3
f 36/4/3 34/4/3 35/4/3
f 37/4/3 34/4/3 36/4/3
f 38/4/3 34/4/3 37/4/3
f 39/4/3 34/4/3 38/4/3
f 40/4/3 34/4/3 39/4/3
f 41/4/3 34/4/3 40/4/3
f 42/4/3 34/4/3 41/4/3
f 43/4/3 35/4/3 33/4/3
f 43/10/3 36/10/3 35/10/3
f 44/4/3 37/4/3 36/4/3
f 44/10/3 36/10/3 43/10/3
f 45/5/3 38/5/3 37/5/3
f 45/4/3 37/4/3 44/4/3
f 46/4/3 39/4/3 38/4/3
f 46/5/3 38/5/3 45/5/3
f 47/3/3 40/3/3 39/3/3
f 47/4/3 39/4/3 46/4/3
f 48/4/3 41/4/3 40/4/3
f 48/3/3 40/3/3 47/3/3
f 49/12/3 42/12/3 41/12/3
f 49/4/3 41/4/3 48/4/3
f 50/4/3 34/4/3 42/4/3
f 50/12/3 42/12/3 49/12/3
f 51/4/3 43/4/3 33/4/3
f 51/7/3 44/7/3 43/7/3
f 52/4/3 45/4/3 44/4/3
f 52/7/3 44/7/3 51/7/3
f 53/8/3 46/8/3 45/8/3
f 53/4/3 45/4/3 52/4/3
f 54/4/3 47/4/3 46/4/3
f 54/8/3 46/8/3 53/8/3
f 55/2/3 48/2/3 47/2/3
f 55/4/3 47/4/3 54/4/3
f 56/4/3 49/4/3 48/4/3
f 56/2/3 48/2/3 55/2/3
f 57/10/3 50/10/3 49/10/3
f 57/4/3 49/4/3 56/4/3
f 58/4/3 34/4/3 50/4/3
f 58/10/3 50/10/3 57/10/3
f 59/4/3 51/4/3 33/4/3
f 59/3/3 52/3/3 51/3/3
f 60/4/3 53/4/3 52/4/3
f 60/3/3 52/3/3 59/3/3
f 61/6/3 54/6/3 53/6/3
f 61/4/3 53/4/3 60/4/3
f 62/4/3 55/4/3 54/4/3
f 62/6/3 54/6/3 61/6/3
f 63/1/3 56/1/3 55/1/3
f 63/4/3 55/4/3 62/4/3
f 64/4/3 57/4/3 56/4/3
f 64/1/3 56/1/3 63/1/3
f 65/7/3 58/7/3 57/7/3
f 65/4/3 57/4/3 64/4/3
f 66/4/3 34/4/3 58/4/3
f 66/7/3 58/7/3 65/7/3
f 67/2/3 60/2/3 59/2/3
f 67/4/3 59/4/3 33/4/3
f 68/4/3 61/4/3 60/4/3
f 68/2/3 60/2/3 67/2/3
f 69/10/3 62/10/3 61/10/3
f 69/4/3 61/4/3 68/4/3
f 70/4/3 63/4/3 62/4/3
f 70/10/3 62/10/3 69/10/3
f 71/11/3 64/11/3 63/11/3
f 71/4/3 63/4/3 70/4/3
f 72/4/3 65/4/3 64/4/3
f 72/11/3 64/11/3 71/11/3
f 73/3/3 66/3/3 65/3/3
f 73/4/3 65/4/3 72/4/3
f 74/4/3 34/4/3 66/4/3
f 74/3/3 66/3/3 73/3/3
f 75/4/3 67/4/3 33/4/3
f 75/9/3 68/9/3 67/9/3
f 76/4/3 69/4/3 68/4/3
f 76/9/3 68/9/3 75/9/3
f 77/7/3 70/7/3 69/7/3
f 77/4/3 69/4/3 76/4/3
f 78/4/3 71/4/3 70/4/3
f 78/7/3 70/7/3 77/7/3
f 79/10/3 72/10/3 71/10/3
f 79/4/3 71/4/3 78/4/3
f 80/4/3 73/4/3 72/4/3
f 80/10/3 72/10/3 79/10/3
f 81/13/3 74/13/3 73/13/3
f 81/4/3 73/4/3 80/4/3
f 82/4/3 34/4/3 74/4/3
f 82/13/3 74/13/3 81/13/3
f 83/4/3 75/4/3 33/4/3
f 83/6/3 76/6/3 75/6/3
f 84/4/3 77/4/3 76/4/3
f 84/6/3 76/6/3 83/6/3
f 85/3/3 78/3/3 77/3/3
f 85/4/3 77/4/3 84/4/3
f 86/4/3 79/4/3 78/4/3
f 86/3/3 78/3/3 85/3/3
f 87/7/3 80/7/3 79/7/3
f 87/4/3 79/4/3 86/4/3
f 88/4/3 81/4/3 80/4/3
f 88/7/3 80/7/3 87/7/3
f 89/1/3 82/1/3 81/1/3
f 89/4/3 81/4/3 88/4/3
f 90/4/3 34/4/3 82/4/3
f 90/1/3 82/1/3 89/1/3
f 91/4/3 87/4/3 86/4/3
f 91/4/3 85/4/3 84/4/3
f 91/4/3 90/4/3 89/4/3
f 91/4/3 84/4/3 83/4/3
f 91/4/3 88/4/3 87/4/3
f 91/4/3 83/4/3 33/4/3
f 91/4/3 86/4/3 85/4/3
f 91/4/3 89/4/3 88/4/3
f 92/4/3 34/4/3 90/4/3
f 92/4/3 90/4/3 91/4/3
f 99/4/3 94/4/3 93/4/3
f 100/4/3 94/4/3 99/4/3
f 101/4/3 96/4/3 95/4/3
f 102/4/3 96/4/3 101/4/3
f 103/4/3 98/4/3 97/4/3
f 104/4/3 98/4/3 103/4/3
f 105/5/4 106/5/4 111/5/4
f 111/5/4 106/5/4 112/5/4
f 107/3/4 108/3/4 113/3/4
f 113/3/4 108/3/4 114/3/4
f 109/12/4 110/12/4 115/12/4
f 115/12/4 110/12/4 116/12/4
f 111/8/4 112/8/4 117/8/4
f 117/8/4 112/8/4 118/8/4
f 113/2/4 114/2/4 119/2/4
f 119/2/4 114/2/4 120/2/4
f 115/10/4 116/10/4 121/10/4
f 121/10/4 116/10/4 122/10/4
f 117/6/4 118/6/4 123/6/4
f 123/6/4 118/6/4 124/6/4
f 119/1/4 120/1/4 125/1/4
f 125/1/4 120/1/4 126/1/4
f 121/7/4 122/7/4 127/7/4
f 127/7/4 122/7/4 128/7/4
f 123/10/4 124/10/4 129/10/4
f 129/10/4 124/10/4 130/10/4
f 125/11/4 126/11/4 131/11/4
f 131/11/4 126/11/4 132/11/4
f 127/3/4 128/3/4 133/3/4
f 133/3/4 128/3/4 134/3/4
f 129/7/4 130/7/4 135/7/4
f 135/7/4 130/7/4 136/7/4
f 131/10/4 132/10/4 137/10/4
f 137/10/4 132/10/4 138/10/4
f 133/13/4 134/13/4 139/13/4
f 139/13/4 134/13/4 140/13/4
f 135/3/4 136/3/4 141/3/4
f 141/3/4 136/3/4 142/3/4
f 137/7/4 138/7/4 143/7/4
f 143/7/4 138/7/4 144/7/4
f 139/1/4 140/1/4 145/1/4
f 145/1/4 140/1/4 146/1/4
f 147/4/4 148/4/4 149/4/4
f 149/4/4 148/4/4 150/4/4
f 153/4/5 152/4/5 151/4/5
f 154/4/5 152/4/5 153/4/5
f 162/4/5 156/4/5 155/4/5
f 162/4/5 161/4/5 160/4/5
f 162/4/5 160/4/5 159/4/5
f 162/4/5 159/4/5 158/4/5
f 162/4/5 158/4/5 157/4/5
f 162/4/5 157/4/5 156/4/5
f 163/4/5 161/4/5 162/4/5
f 171/4/5 165/4/5 164/4/5
f 171/4/5 170/4/5 169/4/5
f 171/4/5 169/4/5 168/4/5
f 171/4/5 168/4/5 167/4/5
f 171/4/5 167/4/5 166/4/5
f 171/4/5 166/4/5 165/4/5
f 172/4/5 170/4/5 171/4/5
f 180/4/5 174/4/5 173/4/5
f 180/4/5 179/4/5 178/4/5
f 180/4/5 178/4/5 177/4/5
f 180/4/5 177/4/5 176/4/5
f 180/4/5 176/4/5 175/4/5
f 180/4/5 175/4/5 174/4/5
f 181/4/5 179/4/5 180/4/5
f 182/4/6 183/4/6 189/4/6
f 187/4/6 188/4/6 189/4/6
f 186/4/6 187/4/6 189/4/6
f 185/4/6 186/4/6 189/4/6
f 184/4/6 185/4/6 189/4/6
f 183/4/6 184/4/6 189/4/6
f 189/4/6 188/4/6 190/4/6
f 191/4/6 192/4/6 198/4/6
f 196/4/6 197/4/6 198/4/6
f 195/4/6 196/4/6 198/4/6
f 194/4/6 195/4/6 198/4/6
f 193/4/6 194/4/6 198/4/6
f 192/4/6 193/4/6 198/4/6
f 198/4/6 197/4/6 199/4/6
f 200/4/6 201/4/6 207/4/6
f 205/4/6 206/4/6 207/4/6
f 204/4/6 205/4/6 207/4/6
f 203/4/6 204/4/6 207/4/6
f 202/4/6 203/4/6 207/4/6
f 201/4/6 202/4/6 207/4/6
f 207/4/6 206/4/6 208/4/6
f 209/4/6 210/4/6 211/4/6
f 211/4/6 210/4/6 212/4/6
