# MagicaVoxel @ Ephtracy

# group
g ApartmentMid

# material
mtllib ApartmentMid.mtl
usemtl palette

# normals
vn -1 0 0
vn 1 0 0
vn 0 0 1
vn 0 0 -1
vn 0 -1 0
vn 0 1 0

# texcoords
vt 0.0605469 0.5
vt 0.201172 0.5
vt 0.306641 0.5
vt 0.982422 0.5

# verts
v -36 0 36
v -36 0 -36
v -36 80 36
v -36 80 -36
v -29 8 -36
v -29 8 -38
v -29 9 -37
v -29 9 -38
v -29 32 -36
v -29 32 -37
v -29 48 -36
v -29 48 -38
v -29 49 -37
v -29 49 -38
v -29 72 -36
v -29 72 -37
v -6 8 -36
v -6 8 -38
v -6 9 -37
v -6 9 -38
v -6 32 -36
v -6 32 -37
v -6 48 -36
v -6 48 -38
v -6 49 -37
v -6 49 -38
v -6 72 -36
v -6 72 -37
v 16 8 -36
v 16 8 -38
v 16 9 -37
v 16 9 -38
v 16 32 -36
v 16 32 -37
v 16 48 -36
v 16 48 -38
v 16 49 -37
v 16 49 -38
v 16 72 -36
v 16 72 -37
v -16 8 -36
v -16 8 -38
v -16 9 -37
v -16 9 -38
v -16 32 -36
v -16 32 -37
v -16 48 -36
v -16 48 -38
v -16 49 -37
v -16 49 -38
v -16 72 -36
v -16 72 -37
v 7 8 -36
v 7 8 -38
v 7 9 -37
v 7 9 -38
v 7 32 -36
v 7 32 -37
v 7 48 -36
v 7 48 -38
v 7 49 -37
v 7 49 -38
v 7 72 -36
v 7 72 -37
v 29 8 -36
v 29 8 -38
v 29 9 -37
v 29 9 -38
v 29 32 -36
v 29 32 -37
v 29 48 -36
v 29 48 -38
v 29 49 -37
v 29 49 -38
v 29 72 -36
v 29 72 -37
v 36 0 36
v 36 0 -36
v 36 80 36
v 36 80 -36
v -36 0 36
v -36 80 36
v 36 0 36
v 36 80 36
v -36 0 -36
v -36 80 -36
v -29 8 -36
v -29 32 -36
v -29 48 -36
v -29 72 -36
v -16 8 -36
v -16 32 -36
v -16 48 -36
v -16 72 -36
v -6 8 -36
v -6 32 -36
v -6 48 -36
v -6 72 -36
v 7 8 -36
v 7 32 -36
v 7 48 -36
v 7 72 -36
v 16 8 -36
v 16 32 -36
v 16 48 -36
v 16 72 -36
v 29 8 -36
v 29 32 -36
v 29 48 -36
v 29 72 -36
v 36 0 -36
v 36 80 -36
v -29 9 -37
v -29 32 -37
v -29 49 -37
v -29 72 -37
v -28 9 -37
v -28 31 -37
v -28 49 -37
v -28 71 -37
v -17 9 -37
v -17 31 -37
v -17 49 -37
v -17 71 -37
v -16 9 -37
v -16 32 -37
v -16 49 -37
v -16 72 -37
v -6 9 -37
v -6 32 -37
v -6 49 -37
v -6 72 -37
v -5 9 -37
v -5 31 -37
v -5 49 -37
v -5 71 -37
v 6 9 -37
v 6 31 -37
v 6 49 -37
v 6 71 -37
v 7 9 -37
v 7 32 -37
v 7 49 -37
v 7 72 -37
v 16 9 -37
v 16 32 -37
v 16 49 -37
v 16 72 -37
v 17 9 -37
v 17 31 -37
v 17 49 -37
v 17 71 -37
v 28 9 -37
v 28 31 -37
v 28 49 -37
v 28 71 -37
v 29 9 -37
v 29 32 -37
v 29 49 -37
v 29 72 -37
v -29 8 -38
v -29 9 -38
v -29 48 -38
v -29 49 -38
v -16 8 -38
v -16 9 -38
v -16 48 -38
v -16 49 -38
v -6 8 -38
v -6 9 -38
v -6 48 -38
v -6 49 -38
v 7 8 -38
v 7 9 -38
v 7 48 -38
v 7 49 -38
v 16 8 -38
v 16 9 -38
v 16 48 -38
v 16 49 -38
v 29 8 -38
v 29 9 -38
v 29 48 -38
v 29 49 -38
v -36 0 36
v 36 0 36
v -36 0 -36
v 36 0 -36
v -29 8 -36
v -16 8 -36
v -6 8 -36
v 7 8 -36
v 16 8 -36
v 29 8 -36
v -29 8 -38
v -16 8 -38
v -6 8 -38
v 7 8 -38
v 16 8 -38
v 29 8 -38
v -29 48 -36
v -16 48 -36
v -6 48 -36
v 7 48 -36
v 16 48 -36
v 29 48 -36
v -29 48 -38
v -16 48 -38
v -6 48 -38
v 7 48 -38
v 16 48 -38
v 29 48 -38
v -29 9 -37
v -28 9 -37
v -17 9 -37
v -16 9 -37
v -6 9 -37
v -5 9 -37
v 6 9 -37
v 7 9 -37
v 16 9 -37
v 17 9 -37
v 28 9 -37
v 29 9 -37
v -29 9 -38
v -16 9 -38
v -6 9 -38
v 7 9 -38
v 16 9 -38
v 29 9 -38
v -29 32 -36
v -16 32 -36
v -6 32 -36
v 7 32 -36
v 16 32 -36
v 29 32 -36
v -29 32 -37
v -16 32 -37
v -6 32 -37
v 7 32 -37
v 16 32 -37
v 29 32 -37
v -29 49 -37
v -28 49 -37
v -17 49 -37
v -16 49 -37
v -6 49 -37
v -5 49 -37
v 6 49 -37
v 7 49 -37
v 16 49 -37
v 17 49 -37
v 28 49 -37
v 29 49 -37
v -29 49 -38
v -16 49 -38
v -6 49 -38
v 7 49 -38
v 16 49 -38
v 29 49 -38
v -29 72 -36
v -16 72 -36
v -6 72 -36
v 7 72 -36
v 16 72 -36
v 29 72 -36
v -29 72 -37
v -16 72 -37
v -6 72 -37
v 7 72 -37
v 16 72 -37
v 29 72 -37
v -36 80 36
v 36 80 36
v -36 80 -36
v 36 80 -36

# faces
f 3/2/1 2/2/1 1/2/1
f 4/2/1 2/2/1 3/2/1
f 7/4/1 6/4/1 5/4/1
f 8/4/1 6/4/1 7/4/1
f 9/4/1 7/4/1 5/4/1
f 10/4/1 7/4/1 9/4/1
f 13/4/1 12/4/1 11/4/1
f 14/4/1 12/4/1 13/4/1
f 15/4/1 13/4/1 11/4/1
f 16/4/1 13/4/1 15/4/1
f 19/4/1 18/4/1 17/4/1
f 20/4/1 18/4/1 19/4/1
f 21/4/1 19/4/1 17/4/1
f 22/4/1 19/4/1 21/4/1
f 25/4/1 24/4/1 23/4/1
f 26/4/1 24/4/1 25/4/1
f 27/4/1 25/4/1 23/4/1
f 28/4/1 25/4/1 27/4/1
f 31/4/1 30/4/1 29/4/1
f 32/4/1 30/4/1 31/4/1
f 33/4/1 31/4/1 29/4/1
f 34/4/1 31/4/1 33/4/1
f 37/4/1 36/4/1 35/4/1
f 38/4/1 36/4/1 37/4/1
f 39/4/1 37/4/1 35/4/1
f 40/4/1 37/4/1 39/4/1
f 41/4/2 42/4/2 43/4/2
f 43/4/2 42/4/2 44/4/2
f 41/4/2 43/4/2 45/4/2
f 45/4/2 43/4/2 46/4/2
f 47/4/2 48/4/2 49/4/2
f 49/4/2 48/4/2 50/4/2
f 47/4/2 49/4/2 51/4/2
f 51/4/2 49/4/2 52/4/2
f 53/4/2 54/4/2 55/4/2
f 55/4/2 54/4/2 56/4/2
f 53/4/2 55/4/2 57/4/2
f 57/4/2 55/4/2 58/4/2
f 59/4/2 60/4/2 61/4/2
f 61/4/2 60/4/2 62/4/2
f 59/4/2 61/4/2 63/4/2
f 63/4/2 61/4/2 64/4/2
f 65/4/2 66/4/2 67/4/2
f 67/4/2 66/4/2 68/4/2
f 65/4/2 67/4/2 69/4/2
f 69/4/2 67/4/2 70/4/2
f 71/4/2 72/4/2 73/4/2
f 73/4/2 72/4/2 74/4/2
f 71/4/2 73/4/2 75/4/2
f 75/4/2 73/4/2 76/4/2
f 77/2/2 78/2/2 79/2/2
f 79/2/2 78/2/2 80/2/2
f 83/2/3 82/2/3 81/2/3
f 84/2/3 82/2/3 83/2/3
f 85/2/4 86/2/4 87/2/4
f 87/2/4 86/2/4 88/2/4
f 88/2/4 86/2/4 89/2/4
f 89/2/4 86/2/4 90/2/4
f 85/2/4 87/2/4 91/2/4
f 88/2/4 89/2/4 92/2/4
f 92/2/4 89/2/4 93/2/4
f 90/2/4 86/2/4 94/2/4
f 92/2/4 93/2/4 95/2/4
f 93/2/4 94/2/4 95/2/4
f 85/2/4 91/2/4 95/2/4
f 91/2/4 92/2/4 95/2/4
f 95/2/4 94/2/4 96/2/4
f 96/2/4 94/2/4 97/2/4
f 94/2/4 86/2/4 98/2/4
f 97/2/4 94/2/4 98/2/4
f 85/2/4 95/2/4 99/2/4
f 96/2/4 97/2/4 100/2/4
f 100/2/4 97/2/4 101/2/4
f 98/2/4 86/2/4 102/2/4
f 85/2/4 99/2/4 103/2/4
f 101/2/4 102/2/4 103/2/4
f 100/2/4 101/2/4 103/2/4
f 99/2/4 100/2/4 103/2/4
f 103/2/4 102/2/4 104/2/4
f 104/2/4 102/2/4 105/2/4
f 102/2/4 86/2/4 106/2/4
f 105/2/4 102/2/4 106/2/4
f 85/2/4 103/2/4 107/2/4
f 104/2/4 105/2/4 108/2/4
f 108/2/4 105/2/4 109/2/4
f 106/2/4 86/2/4 110/2/4
f 85/2/4 107/2/4 111/2/4
f 109/2/4 110/2/4 111/2/4
f 108/2/4 109/2/4 111/2/4
f 107/2/4 108/2/4 111/2/4
f 110/2/4 86/2/4 112/2/4
f 111/2/4 110/2/4 112/2/4
f 113/4/4 114/4/4 117/4/4
f 117/4/4 114/4/4 118/4/4
f 115/4/4 116/4/4 119/4/4
f 119/4/4 116/4/4 120/4/4
f 117/3/4 118/3/4 121/3/4
f 118/4/4 114/4/4 122/4/4
f 121/3/4 118/3/4 122/3/4
f 119/3/4 120/3/4 123/3/4
f 120/4/4 116/4/4 124/4/4
f 123/3/4 120/3/4 124/3/4
f 121/4/4 122/4/4 125/4/4
f 122/4/4 114/4/4 126/4/4
f 125/4/4 122/4/4 126/4/4
f 123/4/4 124/4/4 127/4/4
f 124/4/4 116/4/4 128/4/4
f 127/4/4 124/4/4 128/4/4
f 129/4/4 130/4/4 133/4/4
f 133/4/4 130/4/4 134/4/4
f 131/4/4 132/4/4 135/4/4
f 135/4/4 132/4/4 136/4/4
f 133/3/4 134/3/4 137/3/4
f 134/4/4 130/4/4 138/4/4
f 137/3/4 134/3/4 138/3/4
f 135/3/4 136/3/4 139/3/4
f 136/4/4 132/4/4 140/4/4
f 139/3/4 136/3/4 140/3/4
f 137/4/4 138/4/4 141/4/4
f 138/4/4 130/4/4 142/4/4
f 141/4/4 138/4/4 142/4/4
f 139/4/4 140/4/4 143/4/4
f 140/4/4 132/4/4 144/4/4
f 143/4/4 140/4/4 144/4/4
f 145/4/4 146/4/4 149/4/4
f 149/4/4 146/4/4 150/4/4
f 147/4/4 148/4/4 151/4/4
f 151/4/4 148/4/4 152/4/4
f 149/3/4 150/3/4 153/3/4
f 150/4/4 146/4/4 154/4/4
f 153/3/4 150/3/4 154/3/4
f 151/3/4 152/3/4 155/3/4
f 152/4/4 148/4/4 156/4/4
f 155/3/4 152/3/4 156/3/4
f 153/4/4 154/4/4 157/4/4
f 154/4/4 146/4/4 158/4/4
f 157/4/4 154/4/4 158/4/4
f 155/4/4 156/4/4 159/4/4
f 156/4/4 148/4/4 160/4/4
f 159/4/4 156/4/4 160/4/4
f 161/4/4 162/4/4 165/4/4
f 165/4/4 162/4/4 166/4/4
f 163/4/4 164/4/4 167/4/4
f 167/4/4 164/4/4 168/4/4
f 169/4/4 170/4/4 173/4/4
f 173/4/4 170/4/4 174/4/4
f 171/4/4 172/4/4 175/4/4
f 175/4/4 172/4/4 176/4/4
f 177/4/4 178/4/4 181/4/4
f 181/4/4 178/4/4 182/4/4
f 179/4/4 180/4/4 183/4/4
f 183/4/4 180/4/4 184/4/4
f 187/2/5 186/2/5 185/2/5
f 188/2/5 186/2/5 187/2/5
f 195/4/5 190/4/5 189/4/5
f 196/4/5 190/4/5 195/4/5
f 197/4/5 192/4/5 191/4/5
f 198/4/5 192/4/5 197/4/5
f 199/4/5 194/4/5 193/4/5
f 200/4/5 194/4/5 199/4/5
f 207/4/5 202/4/5 201/4/5
f 208/4/5 202/4/5 207/4/5
f 209/4/5 204/4/5 203/4/5
f 210/4/5 204/4/5 209/4/5
f 211/4/5 206/4/5 205/4/5
f 212/4/5 206/4/5 211/4/5
f 213/4/6 214/4/6 225/4/6
f 214/4/6 215/4/6 225/4/6
f 215/4/6 216/4/6 225/4/6
f 225/4/6 216/4/6 226/4/6
f 217/4/6 218/4/6 227/4/6
f 218/4/6 219/4/6 227/4/6
f 219/4/6 220/4/6 227/4/6
f 227/4/6 220/4/6 228/4/6
f 223/4/6 224/4/6 229/4/6
f 222/4/6 223/4/6 229/4/6
f 221/4/6 222/4/6 229/4/6
f 229/4/6 224/4/6 230/4/6
f 231/4/6 232/4/6 237/4/6
f 237/4/6 232/4/6 238/4/6
f 233/4/6 234/4/6 239/4/6
f 239/4/6 234/4/6 240/4/6
f 235/4/6 236/4/6 241/4/6
f 241/4/6 236/4/6 242/4/6
f 243/4/6 244/4/6 255/4/6
f 244/4/6 245/4/6 255/4/6
f 245/4/6 246/4/6 255/4/6
f 255/4/6 246/4/6 256/4/6
f 247/4/6 248/4/6 257/4/6
f 248/4/6 249/4/6 257/4/6
f 249/4/6 250/4/6 257/4/6
f 257/4/6 250/4/6 258/4/6
f 253/4/6 254/4/6 259/4/6
f 252/4/6 253/4/6 259/4/6
f 251/4/6 252/4/6 259/4/6
f 259/4/6 254/4/6 260/4/6
f 261/4/6 262/4/6 267/4/6
f 267/4/6 262/4/6 268/4/6
f 263/4/6 264/4/6 269/4/6
f 269/4/6 264/4/6 270/4/6
f 265/4/6 266/4/6 271/4/6
f 271/4/6 266/4/6 272/4/6
f 273/2/6 274/2/6 275/2/6
f 275/2/6 274/2/6 276/2/6
