# MagicaVoxel @ Ephtracy

# group
g ApartmentBottom

# material
mtllib ApartmentBottom.mtl
usemtl palette

# normals
vn -1 0 0
vn 1 0 0
vn 0 0 1
vn 0 0 -1
vn 0 -1 0
vn 0 1 0

# texcoords
vt 0.0605469 0.5
vt 0.169922 0.5
vt 0.201172 0.5
vt 0.306641 0.5
vt 0.982422 0.5

# verts
v -36 0 37
v -36 0 -35
v -36 80 37
v -36 80 -35
v -29 48 -35
v -29 48 -37
v -29 49 -36
v -29 49 -37
v -29 72 -35
v -29 72 -36
v -6 48 -35
v -6 48 -37
v -6 49 -36
v -6 49 -37
v -6 72 -35
v -6 72 -36
v 3 2 36
v 3 2 24
v 3 2 -34
v 3 2 -35
v 3 10 36
v 3 10 24
v 3 11 -34
v 3 11 -35
v 16 48 -35
v 16 48 -37
v 16 49 -36
v 16 49 -37
v 16 72 -35
v 16 72 -36
v 34 2 24
v 34 2 -34
v 34 78 24
v 34 78 -34
v -34 2 24
v -34 2 -34
v -34 78 24
v -34 78 -34
v -16 48 -35
v -16 48 -37
v -16 49 -36
v -16 49 -37
v -16 72 -35
v -16 72 -36
v -3 2 36
v -3 2 24
v -3 2 -34
v -3 2 -35
v -3 10 36
v -3 10 24
v -3 11 -34
v -3 11 -35
v 7 48 -35
v 7 48 -37
v 7 49 -36
v 7 49 -37
v 7 72 -35
v 7 72 -36
v 29 48 -35
v 29 48 -37
v 29 49 -36
v 29 49 -37
v 29 72 -35
v 29 72 -36
v 36 0 37
v 36 0 -35
v 36 80 37
v 36 80 -35
v -36 0 37
v -36 80 37
v 36 0 37
v 36 80 37
v -34 2 -34
v -34 78 -34
v -29 48 -34
v -29 72 -34
v -16 48 -34
v -16 72 -34
v -6 48 -34
v -6 72 -34
v -3 2 -34
v -3 11 -34
v 3 2 -34
v 3 11 -34
v 7 48 -34
v 7 72 -34
v 16 48 -34
v 16 72 -34
v 29 48 -34
v 29 72 -34
v 34 2 -34
v 34 78 -34
v -3 2 36
v -3 10 36
v 3 2 36
v 3 10 36
v -34 2 24
v -34 78 24
v -3 2 24
v -3 10 24
v 3 2 24
v 3 10 24
v 34 2 24
v 34 78 24
v -36 0 -35
v -36 80 -35
v -29 48 -35
v -29 72 -35
v -16 48 -35
v -16 72 -35
v -6 48 -35
v -6 72 -35
v -3 2 -35
v -3 11 -35
v 3 2 -35
v 3 11 -35
v 7 48 -35
v 7 72 -35
v 16 48 -35
v 16 72 -35
v 29 48 -35
v 29 72 -35
v 36 0 -35
v 36 80 -35
v -29 49 -36
v -29 72 -36
v -28 49 -36
v -28 71 -36
v -17 49 -36
v -17 71 -36
v -16 49 -36
v -16 72 -36
v -6 49 -36
v -6 72 -36
v -5 49 -36
v -5 71 -36
v 6 49 -36
v 6 71 -36
v 7 49 -36
v 7 72 -36
v 16 49 -36
v 16 72 -36
v 17 49 -36
v 17 71 -36
v 28 49 -36
v 28 71 -36
v 29 49 -36
v 29 72 -36
v -29 48 -37
v -29 49 -37
v -16 48 -37
v -16 49 -37
v -6 48 -37
v -6 49 -37
v 7 48 -37
v 7 49 -37
v 16 48 -37
v 16 49 -37
v 29 48 -37
v 29 49 -37
v -36 0 37
v 36 0 37
v -36 0 -35
v 36 0 -35
v -3 10 36
v 3 10 36
v -3 10 24
v 3 10 24
v -3 11 -34
v 3 11 -34
v -3 11 -35
v 3 11 -35
v -29 48 -35
v -16 48 -35
v -6 48 -35
v 7 48 -35
v 16 48 -35
v 29 48 -35
v -29 48 -37
v -16 48 -37
v -6 48 -37
v 7 48 -37
v 16 48 -37
v 29 48 -37
v -34 78 24
v 34 78 24
v -34 78 -34
v 34 78 -34
v -3 2 36
v 3 2 36
v -34 2 24
v -3 2 24
v 3 2 24
v 34 2 24
v -34 2 -34
v -3 2 -34
v 3 2 -34
v 34 2 -34
v -3 2 -35
v 3 2 -35
v -29 49 -36
v -28 49 -36
v -17 49 -36
v -16 49 -36
v -6 49 -36
v -5 49 -36
v 6 49 -36
v 7 49 -36
v 16 49 -36
v 17 49 -36
v 28 49 -36
v 29 49 -36
v -29 49 -37
v -16 49 -37
v -6 49 -37
v 7 49 -37
v 16 49 -37
v 29 49 -37
v -29 72 -35
v -16 72 -35
v -6 72 -35
v 7 72 -35
v 16 72 -35
v 29 72 -35
v -29 72 -36
v -16 72 -36
v -6 72 -36
v 7 72 -36
v 16 72 -36
v 29 72 -36
v -36 80 37
v 36 80 37
v -36 80 -35
v 36 80 -35

# faces
f 3/3/1 2/3/1 1/3/1
f 4/3/1 2/3/1 3/3/1
f 7/5/1 6/5/1 5/5/1
f 8/5/1 6/5/1 7/5/1
f 9/5/1 7/5/1 5/5/1
f 10/5/1 7/5/1 9/5/1
f 13/5/1 12/5/1 11/5/1
f 14/5/1 12/5/1 13/5/1
f 15/5/1 13/5/1 11/5/1
f 16/5/1 13/5/1 15/5/1
f 21/2/1 18/2/1 17/2/1
f 22/2/1 18/2/1 21/2/1
f 23/3/1 20/3/1 19/3/1
f 24/3/1 20/3/1 23/3/1
f 27/5/1 26/5/1 25/5/1
f 28/5/1 26/5/1 27/5/1
f 29/5/1 27/5/1 25/5/1
f 30/5/1 27/5/1 29/5/1
f 33/2/1 32/2/1 31/2/1
f 34/2/1 32/2/1 33/2/1
f 35/2/2 36/2/2 37/2/2
f 37/2/2 36/2/2 38/2/2
f 39/5/2 40/5/2 41/5/2
f 41/5/2 40/5/2 42/5/2
f 39/5/2 41/5/2 43/5/2
f 43/5/2 41/5/2 44/5/2
f 45/2/2 46/2/2 49/2/2
f 49/2/2 46/2/2 50/2/2
f 47/3/2 48/3/2 51/3/2
f 51/3/2 48/3/2 52/3/2
f 53/5/2 54/5/2 55/5/2
f 55/5/2 54/5/2 56/5/2
f 53/5/2 55/5/2 57/5/2
f 57/5/2 55/5/2 58/5/2
f 59/5/2 60/5/2 61/5/2
f 61/5/2 60/5/2 62/5/2
f 59/5/2 61/5/2 63/5/2
f 63/5/2 61/5/2 64/5/2
f 65/3/2 66/3/2 67/3/2
f 67/3/2 66/3/2 68/3/2
f 71/3/3 70/3/3 69/3/3
f 72/3/3 70/3/3 71/3/3
f 75/3/3 74/3/3 73/3/3
f 76/3/3 74/3/3 75/3/3
f 77/3/3 75/3/3 73/3/3
f 77/1/3 76/1/3 75/1/3
f 78/3/3 74/3/3 76/3/3
f 78/1/3 76/1/3 77/1/3
f 79/3/3 77/3/3 73/3/3
f 79/3/3 78/3/3 77/3/3
f 80/3/3 74/3/3 78/3/3
f 80/3/3 78/3/3 79/3/3
f 81/3/3 79/3/3 73/3/3
f 82/3/3 79/3/3 81/3/3
f 84/3/3 79/3/3 82/3/3
f 85/1/3 80/1/3 79/1/3
f 85/3/3 84/3/3 83/3/3
f 85/3/3 79/3/3 84/3/3
f 86/3/3 74/3/3 80/3/3
f 86/1/3 80/1/3 85/1/3
f 87/3/3 85/3/3 83/3/3
f 87/3/3 86/3/3 85/3/3
f 88/3/3 74/3/3 86/3/3
f 88/3/3 86/3/3 87/3/3
f 89/3/3 87/3/3 83/3/3
f 89/1/3 88/1/3 87/1/3
f 90/3/3 74/3/3 88/3/3
f 90/1/3 88/1/3 89/1/3
f 91/3/3 89/3/3 83/3/3
f 91/3/3 90/3/3 89/3/3
f 92/3/3 74/3/3 90/3/3
f 92/3/3 90/3/3 91/3/3
f 93/3/4 94/3/4 95/3/4
f 95/3/4 94/3/4 96/3/4
f 97/2/4 98/2/4 99/2/4
f 99/2/4 98/2/4 100/2/4
f 100/2/4 98/2/4 102/2/4
f 101/2/4 102/2/4 103/2/4
f 102/2/4 98/2/4 104/2/4
f 103/2/4 102/2/4 104/2/4
f 105/3/4 106/3/4 107/3/4
f 107/3/4 106/3/4 108/3/4
f 105/3/4 107/3/4 109/3/4
f 108/3/4 106/3/4 110/3/4
f 105/3/4 109/3/4 111/3/4
f 109/3/4 110/3/4 111/3/4
f 110/3/4 106/3/4 112/3/4
f 111/3/4 110/3/4 112/3/4
f 105/3/4 111/3/4 113/3/4
f 113/3/4 111/3/4 114/3/4
f 105/3/4 113/3/4 115/3/4
f 114/3/4 111/3/4 116/3/4
f 116/3/4 111/3/4 117/3/4
f 115/3/4 116/3/4 117/3/4
f 112/3/4 106/3/4 118/3/4
f 115/3/4 117/3/4 119/3/4
f 117/3/4 118/3/4 119/3/4
f 118/3/4 106/3/4 120/3/4
f 119/3/4 118/3/4 120/3/4
f 115/3/4 119/3/4 121/3/4
f 120/3/4 106/3/4 122/3/4
f 115/3/4 121/3/4 123/3/4
f 121/3/4 122/3/4 123/3/4
f 105/3/4 115/3/4 123/3/4
f 122/3/4 106/3/4 124/3/4
f 123/3/4 122/3/4 124/3/4
f 125/5/4 126/5/4 127/5/4
f 127/5/4 126/5/4 128/5/4
f 127/4/4 128/4/4 129/4/4
f 128/5/4 126/5/4 130/5/4
f 129/4/4 128/4/4 130/4/4
f 129/5/4 130/5/4 131/5/4
f 130/5/4 126/5/4 132/5/4
f 131/5/4 130/5/4 132/5/4
f 133/5/4 134/5/4 135/5/4
f 135/5/4 134/5/4 136/5/4
f 135/4/4 136/4/4 137/4/4
f 136/5/4 134/5/4 138/5/4
f 137/4/4 136/4/4 138/4/4
f 137/5/4 138/5/4 139/5/4
f 138/5/4 134/5/4 140/5/4
f 139/5/4 138/5/4 140/5/4
f 141/5/4 142/5/4 143/5/4
f 143/5/4 142/5/4 144/5/4
f 143/4/4 144/4/4 145/4/4
f 144/5/4 142/5/4 146/5/4
f 145/4/4 144/4/4 146/4/4
f 145/5/4 146/5/4 147/5/4
f 146/5/4 142/5/4 148/5/4
f 147/5/4 146/5/4 148/5/4
f 149/5/4 150/5/4 151/5/4
f 151/5/4 150/5/4 152/5/4
f 153/5/4 154/5/4 155/5/4
f 155/5/4 154/5/4 156/5/4
f 157/5/4 158/5/4 159/5/4
f 159/5/4 158/5/4 160/5/4
f 163/3/5 162/3/5 161/3/5
f 164/3/5 162/3/5 163/3/5
f 167/2/5 166/2/5 165/2/5
f 168/2/5 166/2/5 167/2/5
f 171/3/5 170/3/5 169/3/5
f 172/3/5 170/3/5 171/3/5
f 179/5/5 174/5/5 173/5/5
f 180/5/5 174/5/5 179/5/5
f 181/5/5 176/5/5 175/5/5
f 182/5/5 176/5/5 181/5/5
f 183/5/5 178/5/5 177/5/5
f 184/5/5 178/5/5 183/5/5
f 187/2/5 186/2/5 185/2/5
f 188/2/5 186/2/5 187/2/5
f 189/2/6 190/2/6 192/2/6
f 192/2/6 190/2/6 193/2/6
f 191/2/6 192/2/6 195/2/6
f 193/2/6 194/2/6 195/2/6
f 192/2/6 193/2/6 195/2/6
f 195/2/6 194/2/6 196/2/6
f 196/2/6 194/2/6 197/2/6
f 197/2/6 194/2/6 198/2/6
f 196/3/6 197/3/6 199/3/6
f 199/3/6 197/3/6 200/3/6
f 201/5/6 202/5/6 213/5/6
f 202/5/6 203/5/6 213/5/6
f 203/5/6 204/5/6 213/5/6
f 213/5/6 204/5/6 214/5/6
f 205/5/6 206/5/6 215/5/6
f 206/5/6 207/5/6 215/5/6
f 207/5/6 208/5/6 215/5/6
f 215/5/6 208/5/6 216/5/6
f 211/5/6 212/5/6 217/5/6
f 210/5/6 211/5/6 217/5/6
f 209/5/6 210/5/6 217/5/6
f 217/5/6 212/5/6 218/5/6
f 219/5/6 220/5/6 225/5/6
f 225/5/6 220/5/6 226/5/6
f 221/5/6 222/5/6 227/5/6
f 227/5/6 222/5/6 228/5/6
f 223/5/6 224/5/6 229/5/6
f 229/5/6 224/5/6 230/5/6
f 231/3/6 232/3/6 233/3/6
f 233/3/6 232/3/6 234/3/6
