# MagicaVoxel @ Ephtracy

# group
g ManholeEntrance

# material
mtllib ManholeEntrance.mtl
usemtl palette

# normals
vn -1 0 0
vn 1 0 0
vn 0 0 1
vn 0 0 -1
vn 0 -1 0
vn 0 1 0

# texcoords
vt 0.982422 0.5
vt 0.994141 0.5

# verts
v -5 0 4
v -5 0 -4
v -5 10 4
v -5 10 -4
v -4 0 5
v -4 0 4
v -4 0 -4
v -4 0 -5
v -4 10 5
v -4 10 4
v -4 10 -4
v -4 10 -5
v 3 0 -3
v 3 0 -4
v 3 2 -3
v 3 2 -4
v 3 3 -3
v 3 3 -4
v 3 5 -3
v 3 5 -4
v 3 6 -3
v 3 6 -4
v 3 8 -3
v 3 8 -4
v 3 9 -3
v 3 9 -4
v 3 10 -3
v 3 10 -4
v 4 0 4
v 4 0 -3
v 4 10 4
v 4 10 -3
v -4 0 4
v -4 0 -3
v -4 10 4
v -4 10 -3
v -3 0 -3
v -3 0 -4
v -3 2 -3
v -3 2 -4
v -3 3 -3
v -3 3 -4
v -3 5 -3
v -3 5 -4
v -3 6 -3
v -3 6 -4
v -3 8 -3
v -3 8 -4
v -3 9 -3
v -3 9 -4
v -3 10 -3
v -3 10 -4
v 4 0 5
v 4 0 4
v 4 0 -4
v 4 0 -5
v 4 10 5
v 4 10 4
v 4 10 -4
v 4 10 -5
v 5 0 4
v 5 0 -4
v 5 10 4
v 5 10 -4
v -4 0 5
v -4 10 5
v 4 0 5
v 4 10 5
v -5 0 4
v -5 10 4
v -4 0 4
v -4 10 4
v 4 0 4
v 4 10 4
v 5 0 4
v 5 10 4
v -4 0 -3
v -4 10 -3
v -3 0 -3
v -3 2 -3
v -3 3 -3
v -3 5 -3
v -3 6 -3
v -3 8 -3
v -3 9 -3
v -3 10 -3
v 3 0 -3
v 3 2 -3
v 3 3 -3
v 3 5 -3
v 3 6 -3
v 3 8 -3
v 3 9 -3
v 3 10 -3
v 4 0 -3
v 4 10 -3
v -3 0 -4
v -3 2 -4
v -3 3 -4
v -3 5 -4
v -3 6 -4
v -3 8 -4
v -3 9 -4
v -3 10 -4
v 3 0 -4
v 3 2 -4
v 3 3 -4
v 3 5 -4
v 3 6 -4
v 3 8 -4
v 3 9 -4
v 3 10 -4
v -4 0 4
v -4 10 4
v 4 0 4
v 4 10 4
v -5 0 -4
v -5 10 -4
v -4 0 -4
v -4 10 -4
v 4 0 -4
v 4 10 -4
v 5 0 -4
v 5 10 -4
v -4 0 -5
v -4 10 -5
v 4 0 -5
v 4 10 -5
v -4 0 5
v 4 0 5
v -5 0 4
v -4 0 4
v 4 0 4
v 5 0 4
v -4 0 -3
v -3 0 -3
v 3 0 -3
v 4 0 -3
v -5 0 -4
v -4 0 -4
v -3 0 -4
v 3 0 -4
v 4 0 -4
v 5 0 -4
v -4 0 -5
v 4 0 -5
v -3 2 -3
v 3 2 -3
v -3 2 -4
v 3 2 -4
v -3 5 -3
v 3 5 -3
v -3 5 -4
v 3 5 -4
v -3 8 -3
v 3 8 -3
v -3 8 -4
v 3 8 -4
v -3 3 -3
v 3 3 -3
v -3 3 -4
v 3 3 -4
v -3 6 -3
v 3 6 -3
v -3 6 -4
v 3 6 -4
v -3 9 -3
v 3 9 -3
v -3 9 -4
v 3 9 -4
v -4 10 5
v 4 10 5
v -5 10 4
v -4 10 4
v 4 10 4
v 5 10 4
v -4 10 -3
v -3 10 -3
v 3 10 -3
v 4 10 -3
v -5 10 -4
v -4 10 -4
v -3 10 -4
v 3 10 -4
v 4 10 -4
v 5 10 -4
v -4 10 -5
v 4 10 -5

# faces
f 3/2/1 2/2/1 1/2/1
f 4/2/1 2/2/1 3/2/1
f 9/2/1 6/2/1 5/2/1
f 10/2/1 6/2/1 9/2/1
f 11/2/1 8/2/1 7/2/1
f 12/2/1 8/2/1 11/2/1
f 15/1/1 14/1/1 13/1/1
f 16/1/1 14/1/1 15/1/1
f 19/1/1 18/1/1 17/1/1
f 20/1/1 18/1/1 19/1/1
f 23/1/1 22/1/1 21/1/1
f 24/1/1 22/1/1 23/1/1
f 27/1/1 26/1/1 25/1/1
f 28/1/1 26/1/1 27/1/1
f 31/2/1 30/2/1 29/2/1
f 32/2/1 30/2/1 31/2/1
f 33/2/2 34/2/2 35/2/2
f 35/2/2 34/2/2 36/2/2
f 37/1/2 38/1/2 39/1/2
f 39/1/2 38/1/2 40/1/2
f 41/1/2 42/1/2 43/1/2
f 43/1/2 42/1/2 44/1/2
f 45/1/2 46/1/2 47/1/2
f 47/1/2 46/1/2 48/1/2
f 49/1/2 50/1/2 51/1/2
f 51/1/2 50/1/2 52/1/2
f 53/2/2 54/2/2 57/2/2
f 57/2/2 54/2/2 58/2/2
f 55/2/2 56/2/2 59/2/2
f 59/2/2 56/2/2 60/2/2
f 61/2/2 62/2/2 63/2/2
f 63/2/2 62/2/2 64/2/2
f 67/2/3 66/2/3 65/2/3
f 68/2/3 66/2/3 67/2/3
f 71/2/3 70/2/3 69/2/3
f 72/2/3 70/2/3 71/2/3
f 75/2/3 74/2/3 73/2/3
f 76/2/3 74/2/3 75/2/3
f 79/1/3 78/1/3 77/1/3
f 80/1/3 78/1/3 79/1/3
f 81/1/3 78/1/3 80/1/3
f 82/1/3 78/1/3 81/1/3
f 83/1/3 78/1/3 82/1/3
f 84/1/3 78/1/3 83/1/3
f 85/1/3 78/1/3 84/1/3
f 86/1/3 78/1/3 85/1/3
f 88/1/3 81/1/3 80/1/3
f 89/1/3 81/1/3 88/1/3
f 90/1/3 83/1/3 82/1/3
f 91/1/3 83/1/3 90/1/3
f 92/1/3 85/1/3 84/1/3
f 93/1/3 85/1/3 92/1/3
f 95/1/3 89/1/3 88/1/3
f 95/1/3 94/1/3 93/1/3
f 95/1/3 93/1/3 92/1/3
f 95/1/3 92/1/3 91/1/3
f 95/1/3 91/1/3 90/1/3
f 95/1/3 90/1/3 89/1/3
f 95/1/3 88/1/3 87/1/3
f 96/1/3 94/1/3 95/1/3
f 105/2/3 98/2/3 97/2/3
f 106/2/3 98/2/3 105/2/3
f 107/2/3 100/2/3 99/2/3
f 108/2/3 100/2/3 107/2/3
f 109/2/3 102/2/3 101/2/3
f 110/2/3 102/2/3 109/2/3
f 111/2/3 104/2/3 103/2/3
f 112/2/3 104/2/3 111/2/3
f 113/2/4 114/2/4 115/2/4
f 115/2/4 114/2/4 116/2/4
f 117/2/4 118/2/4 119/2/4
f 119/2/4 118/2/4 120/2/4
f 121/2/4 122/2/4 123/2/4
f 123/2/4 122/2/4 124/2/4
f 125/2/4 126/2/4 127/2/4
f 127/2/4 126/2/4 128/2/4
f 132/2/5 130/2/5 129/2/5
f 133/2/5 130/2/5 132/2/5
f 135/2/5 132/2/5 131/2/5
f 138/2/5 134/2/5 133/2/5
f 139/2/5 135/2/5 131/2/5
f 140/1/5 136/1/5 135/1/5
f 140/2/5 135/2/5 139/2/5
f 141/1/5 136/1/5 140/1/5
f 142/1/5 138/1/5 137/1/5
f 143/2/5 134/2/5 138/2/5
f 143/1/5 138/1/5 142/1/5
f 144/2/5 134/2/5 143/2/5
f 145/2/5 141/2/5 140/2/5
f 145/2/5 142/2/5 141/2/5
f 145/2/5 143/2/5 142/2/5
f 146/2/5 143/2/5 145/2/5
f 149/1/5 148/1/5 147/1/5
f 150/1/5 148/1/5 149/1/5
f 153/1/5 152/1/5 151/1/5
f 154/1/5 152/1/5 153/1/5
f 157/1/5 156/1/5 155/1/5
f 158/1/5 156/1/5 157/1/5
f 159/1/6 160/1/6 161/1/6
f 161/1/6 160/1/6 162/1/6
f 163/1/6 164/1/6 165/1/6
f 165/1/6 164/1/6 166/1/6
f 167/1/6 168/1/6 169/1/6
f 169/1/6 168/1/6 170/1/6
f 171/2/6 172/2/6 174/2/6
f 174/2/6 172/2/6 175/2/6
f 173/2/6 174/2/6 177/2/6
f 175/2/6 176/2/6 180/2/6
f 173/2/6 177/2/6 181/2/6
f 177/1/6 178/1/6 182/1/6
f 181/2/6 177/2/6 182/2/6
f 182/1/6 178/1/6 183/1/6
f 179/1/6 180/1/6 184/1/6
f 180/2/6 176/2/6 185/2/6
f 184/1/6 180/1/6 185/1/6
f 185/2/6 176/2/6 186/2/6
f 182/2/6 183/2/6 187/2/6
f 183/2/6 184/2/6 187/2/6
f 184/2/6 185/2/6 187/2/6
f 187/2/6 185/2/6 188/2/6
