# MagicaVoxel @ Ephtracy

# group
g apartmentroom

# material
mtllib apartmentroom.mtl
usemtl palette

# normals
vn -1 0 0
vn 1 0 0
vn 0 0 1
vn 0 0 -1
vn 0 -1 0
vn 0 1 0

# texcoords
vt 0.00585938 0.5
vt 0.958984 0.5

# verts
v -60 0 60
v -60 0 -60
v -60 24 60
v -60 24 -60
v -27 1 59
v -27 1 42
v -27 1 32
v -27 1 24
v -27 19 42
v -27 19 32
v -27 24 59
v -27 24 24
v -8 1 24
v -8 1 23
v -8 19 24
v -8 19 23
v -1 1 23
v -1 1 -59
v -1 24 23
v -1 24 -59
v 0 1 60
v 0 1 59
v 0 19 60
v 0 19 59
v 59 1 59
v 59 1 -59
v 59 24 59
v 59 24 -59
v -59 1 59
v -59 1 24
v -59 1 23
v -59 1 -59
v -59 24 59
v -59 24 24
v -59 24 23
v -59 24 -59
v -26 1 59
v -26 1 42
v -26 1 32
v -26 1 24
v -26 19 42
v -26 19 32
v -26 24 59
v -26 24 24
v -18 1 24
v -18 1 23
v -18 19 24
v -18 19 23
v -10 1 60
v -10 1 59
v -10 19 60
v -10 19 59
v 0 1 24
v 0 1 -59
v 0 24 24
v 0 24 -59
v 60 0 60
v 60 0 -60
v 60 24 60
v 60 24 -60
v -60 0 60
v -60 24 60
v -10 1 60
v -10 19 60
v 0 1 60
v 0 19 60
v 60 0 60
v 60 24 60
v -27 1 32
v -27 19 32
v -26 1 32
v -26 19 32
v -59 1 24
v -59 24 24
v -27 1 24
v -27 24 24
v -26 1 24
v -26 24 24
v -18 1 24
v -18 19 24
v -8 1 24
v -8 19 24
v 0 1 24
v 0 24 24
v -59 1 -59
v -59 24 -59
v -1 1 -59
v -1 24 -59
v 0 1 -59
v 0 24 -59
v 59 1 -59
v 59 24 -59
v -59 1 59
v -59 24 59
v -27 1 59
v -27 24 59
v -26 1 59
v -26 24 59
v -10 1 59
v -10 19 59
v 0 1 59
v 0 19 59
v 59 1 59
v 59 24 59
v -27 1 42
v -27 19 42
v -26 1 42
v -26 19 42
v -59 1 23
v -59 24 23
v -27 1 23
v -27 23 23
v -26 1 23
v -26 23 23
v -18 1 23
v -18 19 23
v -8 1 23
v -8 19 23
v -1 1 23
v -1 24 23
v -60 0 -60
v -60 24 -60
v 60 0 -60
v 60 24 -60
v -60 0 60
v 60 0 60
v -60 0 -60
v 60 0 -60
v -10 19 60
v 0 19 60
v -10 19 59
v 0 19 59
v -27 19 42
v -26 19 42
v -27 19 32
v -26 19 32
v -18 19 24
v -8 19 24
v -18 19 23
v -8 19 23
v -10 1 60
v 0 1 60
v -59 1 59
v -27 1 59
v -26 1 59
v -10 1 59
v 0 1 59
v 59 1 59
v -27 1 42
v -26 1 42
v -27 1 32
v -26 1 32
v -59 1 24
v -27 1 24
v -26 1 24
v -18 1 24
v -8 1 24
v 0 1 24
v -59 1 23
v -27 1 23
v -26 1 23
v -18 1 23
v -8 1 23
v -1 1 23
v -59 1 -59
v -1 1 -59
v 0 1 -59
v 59 1 -59
v -60 24 60
v 60 24 60
v -59 24 59
v -27 24 59
v -26 24 59
v 59 24 59
v -59 24 24
v -27 24 24
v -26 24 24
v 0 24 24
v -59 24 23
v -1 24 23
v -59 24 -59
v -1 24 -59
v 0 24 -59
v 59 24 -59
v -60 24 -60
v 60 24 -60

# faces
f 3/2/1 2/2/1 1/2/1
f 4/2/1 2/2/1 3/2/1
f 9/2/1 6/2/1 5/2/1
f 10/2/1 8/2/1 7/2/1
f 11/2/1 9/2/1 5/2/1
f 11/2/1 10/2/1 9/2/1
f 12/2/1 8/2/1 10/2/1
f 12/2/1 10/2/1 11/2/1
f 15/2/1 14/2/1 13/2/1
f 16/2/1 14/2/1 15/2/1
f 19/2/1 18/2/1 17/2/1
f 20/2/1 18/2/1 19/2/1
f 23/2/1 22/2/1 21/2/1
f 24/2/1 22/2/1 23/2/1
f 27/2/1 26/2/1 25/2/1
f 28/2/1 26/2/1 27/2/1
f 29/2/2 30/2/2 33/2/2
f 33/2/2 30/2/2 34/2/2
f 31/2/2 32/2/2 35/2/2
f 35/2/2 32/2/2 36/2/2
f 37/2/2 38/2/2 41/2/2
f 39/2/2 40/2/2 42/2/2
f 37/2/2 41/2/2 43/2/2
f 41/2/2 42/2/2 43/2/2
f 42/2/2 40/2/2 44/2/2
f 43/2/2 42/2/2 44/2/2
f 45/2/2 46/2/2 47/2/2
f 47/2/2 46/2/2 48/2/2
f 49/2/2 50/2/2 51/2/2
f 51/2/2 50/2/2 52/2/2
f 53/2/2 54/2/2 55/2/2
f 55/2/2 54/2/2 56/2/2
f 57/2/2 58/2/2 59/2/2
f 59/2/2 58/2/2 60/2/2
f 63/2/3 62/2/3 61/2/3
f 64/2/3 62/2/3 63/2/3
f 65/2/3 63/2/3 61/2/3
f 66/2/3 62/2/3 64/2/3
f 67/2/3 65/2/3 61/2/3
f 67/2/3 66/2/3 65/2/3
f 68/2/3 62/2/3 66/2/3
f 68/2/3 66/2/3 67/2/3
f 71/2/3 70/2/3 69/2/3
f 72/2/3 70/2/3 71/2/3
f 75/2/3 74/2/3 73/2/3
f 76/2/3 74/2/3 75/2/3
f 79/2/3 78/2/3 77/2/3
f 80/2/3 78/2/3 79/2/3
f 82/2/3 78/2/3 80/2/3
f 83/2/3 82/2/3 81/2/3
f 84/2/3 78/2/3 82/2/3
f 84/2/3 82/2/3 83/2/3
f 87/2/3 86/2/3 85/2/3
f 88/2/3 86/2/3 87/2/3
f 91/2/3 90/2/3 89/2/3
f 92/2/3 90/2/3 91/2/3
f 93/2/4 94/2/4 95/2/4
f 95/2/4 94/2/4 96/2/4
f 97/2/4 98/2/4 99/2/4
f 99/2/4 98/2/4 100/2/4
f 100/2/4 98/2/4 102/2/4
f 101/2/4 102/2/4 103/2/4
f 102/2/4 98/2/4 104/2/4
f 103/2/4 102/2/4 104/2/4
f 105/2/4 106/2/4 107/2/4
f 107/2/4 106/2/4 108/2/4
f 109/2/4 110/2/4 111/2/4
f 111/2/4 110/2/4 112/2/4
f 111/1/4 112/1/4 113/1/4
f 112/2/4 110/2/4 114/2/4
f 113/1/4 112/1/4 114/1/4
f 113/2/4 114/2/4 115/2/4
f 115/2/4 114/2/4 116/2/4
f 116/2/4 114/2/4 118/2/4
f 117/2/4 118/2/4 119/2/4
f 114/2/4 110/2/4 120/2/4
f 119/2/4 118/2/4 120/2/4
f 118/2/4 114/2/4 120/2/4
f 121/2/4 122/2/4 123/2/4
f 123/2/4 122/2/4 124/2/4
f 127/2/5 126/2/5 125/2/5
f 128/2/5 126/2/5 127/2/5
f 131/2/5 130/2/5 129/2/5
f 132/2/5 130/2/5 131/2/5
f 135/2/5 134/2/5 133/2/5
f 136/2/5 134/2/5 135/2/5
f 139/2/5 138/2/5 137/2/5
f 140/2/5 138/2/5 139/2/5
f 141/2/6 142/2/6 146/2/6
f 146/2/6 142/2/6 147/2/6
f 143/2/6 144/2/6 149/2/6
f 147/2/6 148/2/6 150/2/6
f 145/2/6 146/2/6 150/2/6
f 146/2/6 147/2/6 150/2/6
f 143/2/6 149/2/6 151/2/6
f 149/2/6 150/2/6 151/2/6
f 150/2/6 148/2/6 152/2/6
f 151/2/6 150/2/6 152/2/6
f 143/2/6 151/2/6 153/2/6
f 153/2/6 151/2/6 154/2/6
f 152/2/6 148/2/6 155/2/6
f 155/2/6 148/2/6 156/2/6
f 156/2/6 148/2/6 157/2/6
f 157/2/6 148/2/6 158/2/6
f 156/2/6 157/2/6 162/2/6
f 162/2/6 157/2/6 163/2/6
f 160/2/6 161/2/6 165/2/6
f 163/2/6 164/2/6 165/2/6
f 162/2/6 163/2/6 165/2/6
f 161/2/6 162/2/6 165/2/6
f 159/2/6 160/2/6 165/2/6
f 165/2/6 164/2/6 166/2/6
f 158/2/6 148/2/6 167/2/6
f 167/2/6 148/2/6 168/2/6
f 169/2/6 170/2/6 171/2/6
f 171/2/6 170/2/6 172/2/6
f 172/2/6 170/2/6 173/2/6
f 173/2/6 170/2/6 174/2/6
f 169/2/6 171/2/6 175/2/6
f 172/2/6 173/2/6 176/2/6
f 176/2/6 173/2/6 177/2/6
f 169/2/6 175/2/6 179/2/6
f 177/2/6 178/2/6 179/2/6
f 176/2/6 177/2/6 179/2/6
f 175/2/6 176/2/6 179/2/6
f 179/2/6 178/2/6 180/2/6
f 169/2/6 179/2/6 181/2/6
f 180/2/6 178/2/6 182/2/6
f 182/2/6 178/2/6 183/2/6
f 174/2/6 170/2/6 184/2/6
f 182/2/6 183/2/6 185/2/6
f 183/2/6 184/2/6 185/2/6
f 169/2/6 181/2/6 185/2/6
f 181/2/6 182/2/6 185/2/6
f 184/2/6 170/2/6 186/2/6
f 185/2/6 184/2/6 186/2/6
