# MagicaVoxel @ Ephtracy

# group
g toilet

# material
mtllib toilet.mtl
usemtl palette

# normals
vn -1 0 0
vn 1 0 0
vn 0 0 1
vn 0 0 -1
vn 0 -1 0
vn 0 1 0

# texcoords
vt 0.751953 0.5
vt 0.912109 0.5
vt 0.916016 0.5
vt 0.923828 0.5
vt 0.931641 0.5

# verts
v -6 0 6.5
v -6 0 -3.5
v -6 1 6.5
v -6 1 -3.5
v -5 0 7.5
v -5 0 6.5
v -5 0 -3.5
v -5 0 -4.5
v -5 1 7.5
v -5 1 6.5
v -5 1 -3.5
v -5 1 -4.5
v -5 8 6.5
v -5 8 -2.5
v -5 11 6.5
v -5 11 -2.5
v -5 11 -3.5
v -5 11 -7.5
v -5 12 6.5
v -5 12 -2.5
v -5 19 -3.5
v -5 19 -7.5
v -5 20 -3.5
v -5 20 -7.5
v -4 7 5.5
v -4 7 -1.5
v -4 8 7.5
v -4 8 6.5
v -4 8 5.5
v -4 8 -1.5
v -4 8 -2.5
v -4 8 -3.5
v -4 11 7.5
v -4 11 6.5
v -4 11 -2.5
v -4 11 -3.5
v -4 12 7.5
v -4 12 6.5
v -4 12 -2.5
v -4 12 -3.5
v -3 1 4.5
v -3 1 -1.5
v -3 7 6.5
v -3 7 5.5
v -3 7 4.5
v -3 7 -1.5
v -3 7 -2.5
v -3 8 6.5
v -3 8 5.5
v -3 8 -1.5
v -3 8 -2.5
v -1 8 -3.5
v -1 8 -4.5
v -1 9 -4.5
v -1 9 -5.5
v -1 10 -3.5
v -1 10 -4.5
v -1 10 -5.5
v -1 10 -6.5
v -1 11 -4.5
v -1 11 -6.5
v 1 7 -0.5
v 1 7 -1.5
v 1 8 -0.5
v 1 8 -1.5
v 2 8 4.5
v 2 8 -0.5
v 2 9 4.5
v 2 9 -0.5
v 3 9 5.5
v 3 9 -1.5
v 3 10 5.5
v 3 10 -1.5
v 3 11 5.5
v 3 11 -1.5
v 3 12 5.5
v 3 12 -1.5
v 4 10 6.5
v 4 10 -2.5
v 4 11 6.5
v 4 11 -2.5
v -4 10 6.5
v -4 10 -2.5
v -4 11 6.5
v -4 11 -2.5
v -3 9 5.5
v -3 9 -1.5
v -3 10 5.5
v -3 10 -1.5
v -3 11 5.5
v -3 11 -1.5
v -3 12 5.5
v -3 12 -1.5
v -2 8 4.5
v -2 8 -0.5
v -2 9 4.5
v -2 9 -0.5
v -1 7 -0.5
v -1 7 -1.5
v -1 8 -0.5
v -1 8 -1.5
v 1 8 -3.5
v 1 8 -4.5
v 1 9 -4.5
v 1 9 -5.5
v 1 10 -3.5
v 1 10 -4.5
v 1 10 -5.5
v 1 10 -6.5
v 1 11 -4.5
v 1 11 -6.5
v 3 1 4.5
v 3 1 -1.5
v 3 7 6.5
v 3 7 5.5
v 3 7 4.5
v 3 7 -1.5
v 3 7 -2.5
v 3 8 6.5
v 3 8 5.5
v 3 8 -1.5
v 3 8 -2.5
v 4 7 5.5
v 4 7 -1.5
v 4 8 7.5
v 4 8 6.5
v 4 8 5.5
v 4 8 -1.5
v 4 8 -2.5
v 4 8 -3.5
v 4 11 7.5
v 4 11 6.5
v 4 11 -2.5
v 4 11 -3.5
v 4 12 7.5
v 4 12 6.5
v 4 12 -2.5
v 4 12 -3.5
v 5 0 7.5
v 5 0 6.5
v 5 0 -3.5
v 5 0 -4.5
v 5 1 7.5
v 5 1 6.5
v 5 1 -3.5
v 5 1 -4.5
v 5 8 6.5
v 5 8 -2.5
v 5 11 6.5
v 5 11 -2.5
v 5 11 -3.5
v 5 11 -7.5
v 5 12 6.5
v 5 12 -2.5
v 5 17 -3.5
v 5 17 -4.5
v 5 18 -4.5
v 5 18 -6.5
v 5 19 -3.5
v 5 19 -6.5
v 5 19 -7.5
v 5 20 -3.5
v 5 20 -7.5
v 6 0 6.5
v 6 0 -3.5
v 6 1 6.5
v 6 1 -3.5
v 6 17 -3.5
v 6 17 -4.5
v 6 18 -4.5
v 6 18 -6.5
v 6 19 -3.5
v 6 19 -6.5
v -5 0 7.5
v -5 1 7.5
v -4 8 7.5
v -4 11 7.5
v -4 12 7.5
v 4 8 7.5
v 4 11 7.5
v 4 12 7.5
v 5 0 7.5
v 5 1 7.5
v -6 0 6.5
v -6 1 6.5
v -5 0 6.5
v -5 1 6.5
v -5 8 6.5
v -5 11 6.5
v -5 12 6.5
v -4 8 6.5
v -4 11 6.5
v -4 12 6.5
v -3 7 6.5
v -3 8 6.5
v 3 7 6.5
v 3 8 6.5
v 4 8 6.5
v 4 11 6.5
v 4 12 6.5
v 5 0 6.5
v 5 1 6.5
v 5 8 6.5
v 5 11 6.5
v 5 12 6.5
v 6 0 6.5
v 6 1 6.5
v -4 7 5.5
v -4 8 5.5
v -3 7 5.5
v -3 8 5.5
v 3 7 5.5
v 3 8 5.5
v 4 7 5.5
v 4 8 5.5
v -3 1 4.5
v -3 7 4.5
v 3 1 4.5
v 3 7 4.5
v -2 8 -0.5
v -2 9 -0.5
v -1 8 -0.5
v 1 8 -0.5
v 2 8 -0.5
v 2 9 -0.5
v -3 9 -1.5
v -3 10 -1.5
v -3 11 -1.5
v -3 12 -1.5
v -1 7 -1.5
v -1 8 -1.5
v 1 7 -1.5
v 1 8 -1.5
v 3 9 -1.5
v 3 10 -1.5
v 3 11 -1.5
v 3 12 -1.5
v -4 10 -2.5
v -4 11 -2.5
v 4 10 -2.5
v 4 11 -2.5
v -5 11 -3.5
v -5 19 -3.5
v -5 20 -3.5
v -4 11 -3.5
v -4 12 -3.5
v 4 11 -3.5
v 4 12 -3.5
v 5 11 -3.5
v 5 17 -3.5
v 5 19 -3.5
v 5 20 -3.5
v 6 17 -3.5
v 6 19 -3.5
v -1 10 -4.5
v -1 11 -4.5
v 1 10 -4.5
v 1 11 -4.5
v -4 10 6.5
v -4 11 6.5
v 4 10 6.5
v 4 11 6.5
v -3 9 5.5
v -3 10 5.5
v -3 11 5.5
v -3 12 5.5
v 3 9 5.5
v 3 10 5.5
v 3 11 5.5
v 3 12 5.5
v -2 8 4.5
v -2 9 4.5
v 2 8 4.5
v 2 9 4.5
v -1 7 -0.5
v -1 8 -0.5
v 1 7 -0.5
v 1 8 -0.5
v -4 7 -1.5
v -4 8 -1.5
v -3 1 -1.5
v -3 7 -1.5
v -3 8 -1.5
v 3 1 -1.5
v 3 7 -1.5
v 3 8 -1.5
v 4 7 -1.5
v 4 8 -1.5
v -5 8 -2.5
v -5 11 -2.5
v -5 12 -2.5
v -4 8 -2.5
v -4 11 -2.5
v -4 12 -2.5
v -3 7 -2.5
v -3 8 -2.5
v 3 7 -2.5
v 3 8 -2.5
v 4 8 -2.5
v 4 11 -2.5
v 4 12 -2.5
v 5 8 -2.5
v 5 11 -2.5
v 5 12 -2.5
v -6 0 -3.5
v -6 1 -3.5
v -5 0 -3.5
v -5 1 -3.5
v -4 8 -3.5
v -4 11 -3.5
v -1 8 -3.5
v -1 10 -3.5
v 1 8 -3.5
v 1 10 -3.5
v 4 8 -3.5
v 4 11 -3.5
v 5 0 -3.5
v 5 1 -3.5
v 6 0 -3.5
v 6 1 -3.5
v -5 0 -4.5
v -5 1 -4.5
v -1 8 -4.5
v -1 9 -4.5
v 1 8 -4.5
v 1 9 -4.5
v 5 0 -4.5
v 5 1 -4.5
v 5 17 -4.5
v 5 18 -4.5
v 6 17 -4.5
v 6 18 -4.5
v -1 9 -5.5
v -1 10 -5.5
v 1 9 -5.5
v 1 10 -5.5
v -1 10 -6.5
v -1 11 -6.5
v 1 10 -6.5
v 1 11 -6.5
v 5 18 -6.5
v 5 19 -6.5
v 6 18 -6.5
v 6 19 -6.5
v -5 11 -7.5
v -5 19 -7.5
v -5 20 -7.5
v 5 11 -7.5
v 5 19 -7.5
v 5 20 -7.5
v -5 0 7.5
v 5 0 7.5
v -6 0 6.5
v -5 0 6.5
v 5 0 6.5
v 6 0 6.5
v -6 0 -3.5
v -5 0 -3.5
v 5 0 -3.5
v 6 0 -3.5
v -5 0 -4.5
v 5 0 -4.5
v -3 7 6.5
v 3 7 6.5
v -4 7 5.5
v -3 7 5.5
v 3 7 5.5
v 4 7 5.5
v -3 7 4.5
v 3 7 4.5
v -4 7 -1.5
v -3 7 -1.5
v 3 7 -1.5
v 4 7 -1.5
v -3 7 -2.5
v 3 7 -2.5
v -4 8 7.5
v 4 8 7.5
v -5 8 6.5
v -4 8 6.5
v -3 8 6.5
v 3 8 6.5
v 4 8 6.5
v 5 8 6.5
v -4 8 5.5
v -3 8 5.5
v 3 8 5.5
v 4 8 5.5
v -1 8 -0.5
v 1 8 -0.5
v -4 8 -1.5
v -3 8 -1.5
v -1 8 -1.5
v 1 8 -1.5
v 3 8 -1.5
v 4 8 -1.5
v -5 8 -2.5
v -4 8 -2.5
v -3 8 -2.5
v 3 8 -2.5
v 4 8 -2.5
v 5 8 -2.5
v -4 8 -3.5
v -1 8 -3.5
v 1 8 -3.5
v 4 8 -3.5
v -1 8 -4.5
v 1 8 -4.5
v -1 9 -4.5
v 1 9 -4.5
v -1 9 -5.5
v 1 9 -5.5
v -1 10 -5.5
v 1 10 -5.5
v -1 10 -6.5
v 1 10 -6.5
v -4 11 6.5
v 4 11 6.5
v -3 11 5.5
v 3 11 5.5
v -3 11 -1.5
v 3 11 -1.5
v -4 11 -2.5
v 4 11 -2.5
v -5 11 -3.5
v -4 11 -3.5
v 4 11 -3.5
v 5 11 -3.5
v -1 11 -4.5
v 1 11 -4.5
v -1 11 -6.5
v 1 11 -6.5
v -5 11 -7.5
v 5 11 -7.5
v 5 17 -3.5
v 6 17 -3.5
v 5 17 -4.5
v 6 17 -4.5
v 5 18 -4.5
v 6 18 -4.5
v 5 18 -6.5
v 6 18 -6.5
v -5 1 7.5
v 5 1 7.5
v -6 1 6.5
v -5 1 6.5
v 5 1 6.5
v 6 1 6.5
v -3 1 4.5
v 3 1 4.5
v -3 1 -1.5
v 3 1 -1.5
v -6 1 -3.5
v -5 1 -3.5
v 5 1 -3.5
v 6 1 -3.5
v -5 1 -4.5
v 5 1 -4.5
v -1 7 -0.5
v 1 7 -0.5
v -1 7 -1.5
v 1 7 -1.5
v -2 8 4.5
v 2 8 4.5
v -1 8 2.5
v 1 8 2.5
v -2 8 -0.5
v -1 8 -0.5
v 1 8 -0.5
v 2 8 -0.5
v -3 9 5.5
v 3 9 5.5
v -2 9 4.5
v 2 9 4.5
v -2 9 -0.5
v 2 9 -0.5
v -3 9 -1.5
v 3 9 -1.5
v -4 10 6.5
v 4 10 6.5
v -3 10 5.5
v 3 10 5.5
v -3 10 -1.5
v 3 10 -1.5
v -4 10 -2.5
v 4 10 -2.5
v -1 10 -3.5
v 1 10 -3.5
v -1 10 -4.5
v 1 10 -4.5
v -4 12 7.5
v 4 12 7.5
v -5 12 6.5
v -4 12 6.5
v 4 12 6.5
v 5 12 6.5
v -3 12 5.5
v 3 12 5.5
v -3 12 -1.5
v 3 12 -1.5
v -5 12 -2.5
v -4 12 -2.5
v 4 12 -2.5
v 5 12 -2.5
v -4 12 -3.5
v 4 12 -3.5
v 5 19 -3.5
v 6 19 -3.5
v 5 19 -6.5
v 6 19 -6.5
v -5 20 -3.5
v 5 20 -3.5
v -5 20 -7.5
v 5 20 -7.5

# faces
f 3/2/1 2/2/1 1/2/1
f 4/2/1 2/2/1 3/2/1
f 9/2/1 6/2/1 5/2/1
f 10/2/1 6/2/1 9/2/1
f 11/2/1 8/2/1 7/2/1
f 12/2/1 8/2/1 11/2/1
f 15/2/1 14/2/1 13/2/1
f 16/2/1 14/2/1 15/2/1
f 19/3/1 16/3/1 15/3/1
f 20/3/1 16/3/1 19/3/1
f 21/3/1 18/3/1 17/3/1
f 22/3/1 18/3/1 21/3/1
f 23/2/1 22/2/1 21/2/1
f 24/2/1 22/2/1 23/2/1
f 29/2/1 26/2/1 25/2/1
f 30/2/1 26/2/1 29/2/1
f 33/2/1 28/2/1 27/2/1
f 34/2/1 28/2/1 33/2/1
f 35/2/1 32/2/1 31/2/1
f 36/2/1 32/2/1 35/2/1
f 37/3/1 34/3/1 33/3/1
f 38/3/1 34/3/1 37/3/1
f 39/3/1 36/3/1 35/3/1
f 40/3/1 36/3/1 39/3/1
f 45/2/1 42/2/1 41/2/1
f 46/2/1 42/2/1 45/2/1
f 48/2/1 44/2/1 43/2/1
f 49/2/1 44/2/1 48/2/1
f 50/2/1 47/2/1 46/2/1
f 51/2/1 47/2/1 50/2/1
f 54/5/1 53/5/1 52/5/1
f 56/5/1 54/5/1 52/5/1
f 56/5/1 55/5/1 54/5/1
f 57/5/1 55/5/1 56/5/1
f 58/5/1 55/5/1 57/5/1
f 60/5/1 59/5/1 58/5/1
f 60/5/1 58/5/1 57/5/1
f 61/5/1 59/5/1 60/5/1
f 64/2/1 63/2/1 62/2/1
f 65/2/1 63/2/1 64/2/1
f 68/2/1 67/2/1 66/2/1
f 69/2/1 67/2/1 68/2/1
f 72/2/1 71/2/1 70/2/1
f 73/2/1 71/2/1 72/2/1
f 76/3/1 75/3/1 74/3/1
f 77/3/1 75/3/1 76/3/1
f 80/2/1 79/2/1 78/2/1
f 81/2/1 79/2/1 80/2/1
f 82/2/2 83/2/2 84/2/2
f 84/2/2 83/2/2 85/2/2
f 86/2/2 87/2/2 88/2/2
f 88/2/2 87/2/2 89/2/2
f 90/3/2 91/3/2 92/3/2
f 92/3/2 91/3/2 93/3/2
f 94/2/2 95/2/2 96/2/2
f 96/2/2 95/2/2 97/2/2
f 98/2/2 99/2/2 100/2/2
f 100/2/2 99/2/2 101/2/2
f 102/5/2 103/5/2 104/5/2
f 102/5/2 104/5/2 106/5/2
f 104/5/2 105/5/2 106/5/2
f 106/5/2 105/5/2 107/5/2
f 107/5/2 105/5/2 108/5/2
f 108/5/2 109/5/2 110/5/2
f 107/5/2 108/5/2 110/5/2
f 110/5/2 109/5/2 111/5/2
f 112/2/2 113/2/2 116/2/2
f 116/2/2 113/2/2 117/2/2
f 114/2/2 115/2/2 119/2/2
f 119/2/2 115/2/2 120/2/2
f 117/2/2 118/2/2 121/2/2
f 121/2/2 118/2/2 122/2/2
f 123/2/2 124/2/2 127/2/2
f 127/2/2 124/2/2 128/2/2
f 125/2/2 126/2/2 131/2/2
f 131/2/2 126/2/2 132/2/2
f 129/2/2 130/2/2 133/2/2
f 133/2/2 130/2/2 134/2/2
f 131/3/2 132/3/2 135/3/2
f 135/3/2 132/3/2 136/3/2
f 133/3/2 134/3/2 137/3/2
f 137/3/2 134/3/2 138/3/2
f 139/2/2 140/2/2 143/2/2
f 143/2/2 140/2/2 144/2/2
f 141/2/2 142/2/2 145/2/2
f 145/2/2 142/2/2 146/2/2
f 147/2/2 148/2/2 149/2/2
f 149/2/2 148/2/2 150/2/2
f 149/3/2 150/3/2 153/3/2
f 153/3/2 150/3/2 154/3/2
f 151/3/2 152/3/2 155/3/2
f 155/3/2 152/3/2 156/3/2
f 156/3/2 152/3/2 157/3/2
f 157/3/2 152/3/2 158/3/2
f 158/3/2 152/3/2 160/3/2
f 160/3/2 152/3/2 161/3/2
f 159/2/2 160/2/2 162/2/2
f 160/2/2 161/2/2 162/2/2
f 162/2/2 161/2/2 163/2/2
f 164/2/2 165/2/2 166/2/2
f 166/2/2 165/2/2 167/2/2
f 168/4/2 169/4/2 170/4/2
f 168/4/2 170/4/2 172/4/2
f 170/4/2 171/4/2 172/4/2
f 172/4/2 171/4/2 173/4/2
f 179/2/3 177/2/3 176/2/3
f 180/3/3 178/3/3 177/3/3
f 180/2/3 177/2/3 179/2/3
f 181/3/3 178/3/3 180/3/3
f 182/2/3 175/2/3 174/2/3
f 183/2/3 175/2/3 182/2/3
f 186/2/3 185/2/3 184/2/3
f 187/2/3 185/2/3 186/2/3
f 191/2/3 189/2/3 188/2/3
f 192/3/3 190/3/3 189/3/3
f 192/2/3 189/2/3 191/2/3
f 193/3/3 190/3/3 192/3/3
f 196/2/3 195/2/3 194/2/3
f 197/2/3 195/2/3 196/2/3
f 203/2/3 199/2/3 198/2/3
f 204/3/3 200/3/3 199/3/3
f 204/2/3 199/2/3 203/2/3
f 205/3/3 200/3/3 204/3/3
f 206/2/3 202/2/3 201/2/3
f 207/2/3 202/2/3 206/2/3
f 210/2/3 209/2/3 208/2/3
f 211/2/3 209/2/3 210/2/3
f 214/2/3 213/2/3 212/2/3
f 215/2/3 213/2/3 214/2/3
f 218/2/3 217/2/3 216/2/3
f 219/2/3 217/2/3 218/2/3
f 222/2/3 221/2/3 220/2/3
f 223/2/3 221/2/3 222/2/3
f 224/2/3 221/2/3 223/2/3
f 225/2/3 221/2/3 224/2/3
f 232/2/3 231/2/3 230/2/3
f 233/2/3 231/2/3 232/2/3
f 234/2/3 227/2/3 226/2/3
f 235/2/3 227/2/3 234/2/3
f 236/3/3 229/3/3 228/3/3
f 237/3/3 229/3/3 236/3/3
f 240/2/3 239/2/3 238/2/3
f 241/2/3 239/2/3 240/2/3
f 245/3/3 243/3/3 242/3/3
f 246/3/3 243/3/3 245/3/3
f 248/3/3 243/3/3 246/3/3
f 249/3/3 248/3/3 247/3/3
f 250/3/3 243/3/3 248/3/3
f 250/3/3 248/3/3 249/3/3
f 251/2/3 244/2/3 243/2/3
f 251/3/3 243/3/3 250/3/3
f 252/2/3 244/2/3 251/2/3
f 253/4/3 251/4/3 250/4/3
f 254/4/3 251/4/3 253/4/3
f 257/5/3 256/5/3 255/5/3
f 258/5/3 256/5/3 257/5/3
f 259/2/4 260/2/4 261/2/4
f 261/2/4 260/2/4 262/2/4
f 263/2/4 264/2/4 267/2/4
f 267/2/4 264/2/4 268/2/4
f 265/3/4 266/3/4 269/3/4
f 269/3/4 266/3/4 270/3/4
f 271/2/4 272/2/4 273/2/4
f 273/2/4 272/2/4 274/2/4
f 275/1/4 276/1/4 277/1/4
f 277/1/4 276/1/4 278/1/4
f 279/2/4 280/2/4 282/2/4
f 282/2/4 280/2/4 283/2/4
f 281/2/4 282/2/4 284/2/4
f 284/2/4 282/2/4 285/2/4
f 285/2/4 286/2/4 287/2/4
f 287/2/4 286/2/4 288/2/4
f 289/2/4 290/2/4 292/2/4
f 290/3/4 291/3/4 293/3/4
f 292/2/4 290/2/4 293/2/4
f 293/3/4 291/3/4 294/3/4
f 295/2/4 296/2/4 297/2/4
f 297/2/4 296/2/4 298/2/4
f 299/2/4 300/2/4 302/2/4
f 300/3/4 301/3/4 303/3/4
f 302/2/4 300/2/4 303/2/4
f 303/3/4 301/3/4 304/3/4
f 305/2/4 306/2/4 307/2/4
f 307/2/4 306/2/4 308/2/4
f 309/2/4 310/2/4 311/2/4
f 311/2/4 310/2/4 312/2/4
f 312/2/4 310/2/4 314/2/4
f 313/2/4 314/2/4 315/2/4
f 314/2/4 310/2/4 316/2/4
f 315/2/4 314/2/4 316/2/4
f 317/2/4 318/2/4 319/2/4
f 319/2/4 318/2/4 320/2/4
f 323/5/4 324/5/4 325/5/4
f 325/5/4 324/5/4 326/5/4
f 321/2/4 322/2/4 327/2/4
f 327/2/4 322/2/4 328/2/4
f 329/4/4 330/4/4 331/4/4
f 331/4/4 330/4/4 332/4/4
f 333/5/4 334/5/4 335/5/4
f 335/5/4 334/5/4 336/5/4
f 337/5/4 338/5/4 339/5/4
f 339/5/4 338/5/4 340/5/4
f 341/4/4 342/4/4 343/4/4
f 343/4/4 342/4/4 344/4/4
f 345/3/4 346/3/4 348/3/4
f 346/2/4 347/2/4 349/2/4
f 348/3/4 346/3/4 349/3/4
f 349/2/4 347/2/4 350/2/4
f 354/2/5 352/2/5 351/2/5
f 355/2/5 352/2/5 354/2/5
f 357/2/5 354/2/5 353/2/5
f 357/2/5 356/2/5 355/2/5
f 357/2/5 355/2/5 354/2/5
f 358/2/5 356/2/5 357/2/5
f 359/2/5 356/2/5 358/2/5
f 360/2/5 356/2/5 359/2/5
f 361/2/5 359/2/5 358/2/5
f 362/2/5 359/2/5 361/2/5
f 366/2/5 364/2/5 363/2/5
f 367/2/5 364/2/5 366/2/5
f 369/2/5 366/2/5 365/2/5
f 369/2/5 368/2/5 367/2/5
f 369/2/5 367/2/5 366/2/5
f 370/2/5 368/2/5 369/2/5
f 371/2/5 369/2/5 365/2/5
f 372/2/5 369/2/5 371/2/5
f 373/2/5 368/2/5 370/2/5
f 374/2/5 368/2/5 373/2/5
f 375/2/5 373/2/5 372/2/5
f 376/2/5 373/2/5 375/2/5
f 380/2/5 378/2/5 377/2/5
f 381/2/5 378/2/5 380/2/5
f 382/2/5 378/2/5 381/2/5
f 383/2/5 378/2/5 382/2/5
f 385/2/5 380/2/5 379/2/5
f 385/2/5 381/2/5 380/2/5
f 386/2/5 381/2/5 385/2/5
f 387/2/5 384/2/5 383/2/5
f 387/2/5 383/2/5 382/2/5
f 388/2/5 384/2/5 387/2/5
f 391/2/5 385/2/5 379/2/5
f 393/2/5 390/2/5 389/2/5
f 394/2/5 390/2/5 393/2/5
f 396/2/5 384/2/5 388/2/5
f 397/2/5 392/2/5 391/2/5
f 397/2/5 391/2/5 379/2/5
f 398/2/5 392/2/5 397/2/5
f 399/2/5 392/2/5 398/2/5
f 400/2/5 396/2/5 395/2/5
f 401/2/5 384/2/5 396/2/5
f 401/2/5 396/2/5 400/2/5
f 402/2/5 384/2/5 401/2/5
f 403/2/5 399/2/5 398/2/5
f 403/2/5 400/2/5 399/2/5
f 403/2/5 401/2/5 400/2/5
f 404/2/5 401/2/5 403/2/5
f 405/2/5 401/2/5 404/2/5
f 406/2/5 401/2/5 405/2/5
f 407/5/5 405/5/5 404/5/5
f 408/5/5 405/5/5 407/5/5
f 411/5/5 410/5/5 409/5/5
f 412/5/5 410/5/5 411/5/5
f 415/5/5 414/5/5 413/5/5
f 416/5/5 414/5/5 415/5/5
f 419/3/5 418/3/5 417/3/5
f 420/3/5 418/3/5 419/3/5
f 421/3/5 419/3/5 417/3/5
f 422/3/5 418/3/5 420/3/5
f 423/3/5 421/3/5 417/3/5
f 423/3/5 422/3/5 421/3/5
f 424/3/5 418/3/5 422/3/5
f 424/3/5 422/3/5 423/3/5
f 429/3/5 427/3/5 426/3/5
f 429/3/5 428/3/5 427/3/5
f 429/3/5 426/3/5 425/3/5
f 430/3/5 428/3/5 429/3/5
f 431/3/5 429/3/5 425/3/5
f 432/3/5 428/3/5 430/3/5
f 433/3/5 431/3/5 425/3/5
f 433/3/5 432/3/5 431/3/5
f 434/3/5 428/3/5 432/3/5
f 434/3/5 432/3/5 433/3/5
f 437/4/5 436/4/5 435/4/5
f 438/4/5 436/4/5 437/4/5
f 441/4/5 440/4/5 439/4/5
f 442/4/5 440/4/5 441/4/5
f 443/2/6 444/2/6 446/2/6
f 446/2/6 444/2/6 447/2/6
f 445/2/6 446/2/6 449/2/6
f 447/2/6 448/2/6 449/2/6
f 446/2/6 447/2/6 449/2/6
f 449/2/6 448/2/6 450/2/6
f 445/2/6 449/2/6 451/2/6
f 450/2/6 448/2/6 452/2/6
f 445/2/6 451/2/6 453/2/6
f 451/2/6 452/2/6 453/2/6
f 453/2/6 452/2/6 454/2/6
f 452/2/6 448/2/6 455/2/6
f 454/2/6 452/2/6 455/2/6
f 455/2/6 448/2/6 456/2/6
f 454/2/6 455/2/6 457/2/6
f 457/2/6 455/2/6 458/2/6
f 459/2/6 460/2/6 461/2/6
f 461/2/6 460/2/6 462/2/6
f 463/2/6 464/2/6 465/2/6
f 465/2/6 464/2/6 466/2/6
f 463/2/6 465/2/6 467/2/6
f 465/1/6 466/1/6 468/1/6
f 467/2/6 465/2/6 468/2/6
f 466/2/6 464/2/6 469/2/6
f 468/1/6 466/1/6 469/1/6
f 469/2/6 464/2/6 470/2/6
f 471/2/6 472/2/6 473/2/6
f 473/2/6 472/2/6 474/2/6
f 471/2/6 473/2/6 475/2/6
f 474/2/6 472/2/6 476/2/6
f 471/2/6 475/2/6 477/2/6
f 475/2/6 476/2/6 477/2/6
f 476/2/6 472/2/6 478/2/6
f 477/2/6 476/2/6 478/2/6
f 479/2/6 480/2/6 481/2/6
f 481/2/6 480/2/6 482/2/6
f 479/2/6 481/2/6 483/2/6
f 482/2/6 480/2/6 484/2/6
f 479/2/6 483/2/6 485/2/6
f 483/2/6 484/2/6 485/2/6
f 484/2/6 480/2/6 486/2/6
f 485/2/6 484/2/6 486/2/6
f 487/5/6 488/5/6 489/5/6
f 489/5/6 488/5/6 490/5/6
f 491/3/6 492/3/6 494/3/6
f 494/3/6 492/3/6 495/3/6
f 493/3/6 494/3/6 497/3/6
f 495/3/6 496/3/6 497/3/6
f 494/3/6 495/3/6 497/3/6
f 497/3/6 496/3/6 498/3/6
f 493/3/6 497/3/6 499/3/6
f 498/3/6 496/3/6 500/3/6
f 493/3/6 499/3/6 501/3/6
f 499/3/6 500/3/6 501/3/6
f 501/3/6 500/3/6 502/3/6
f 500/3/6 496/3/6 503/3/6
f 502/3/6 500/3/6 503/3/6
f 503/3/6 496/3/6 504/3/6
f 502/3/6 503/3/6 505/3/6
f 505/3/6 503/3/6 506/3/6
f 507/4/6 508/4/6 509/4/6
f 509/4/6 508/4/6 510/4/6
f 511/2/6 512/2/6 513/2/6
f 513/2/6 512/2/6 514/2/6
