# MagicaVoxel @ Ephtracy

# group
g lamp

# material
mtllib lamp.mtl
usemtl palette

# normals
vn -1 0 0
vn 1 0 0
vn 0 0 1
vn 0 0 -1
vn 0 -1 0
vn 0 1 0

# texcoords
vt 0.201172 0.5
vt 0.962891 0.5

# verts
v -4 0 4
v -4 0 -4
v -4 1 4
v -4 1 -4
v -4 7 4
v -4 7 -4
v -4 17 4
v -4 17 -4
v -1 1 1
v -1 1 -1
v -1 16 1
v -1 16 -1
v -1 17 1
v -1 17 -1
v -1 18 1
v -1 18 -1
v 3 7 3
v 3 7 -3
v 3 16 3
v 3 16 -3
v -3 7 3
v -3 7 -3
v -3 16 3
v -3 16 -3
v 1 1 1
v 1 1 -1
v 1 16 1
v 1 16 -1
v 1 17 1
v 1 17 -1
v 1 18 1
v 1 18 -1
v 4 0 4
v 4 0 -4
v 4 1 4
v 4 1 -4
v 4 7 4
v 4 7 -4
v 4 17 4
v 4 17 -4
v -4 0 4
v -4 1 4
v -4 7 4
v -4 17 4
v 4 0 4
v 4 1 4
v 4 7 4
v 4 17 4
v -1 1 1
v -1 16 1
v -1 17 1
v -1 18 1
v 1 1 1
v 1 16 1
v 1 17 1
v 1 18 1
v -3 7 -3
v -3 16 -3
v 3 7 -3
v 3 16 -3
v -3 7 3
v -3 16 3
v 3 7 3
v 3 16 3
v -1 1 -1
v -1 16 -1
v -1 17 -1
v -1 18 -1
v 1 1 -1
v 1 16 -1
v 1 17 -1
v 1 18 -1
v -4 0 -4
v -4 1 -4
v -4 7 -4
v -4 17 -4
v 4 0 -4
v 4 1 -4
v 4 7 -4
v 4 17 -4
v -4 0 4
v 4 0 4
v -4 0 -4
v 4 0 -4
v -4 7 4
v 4 7 4
v -3 7 3
v 3 7 3
v -3 7 -3
v 3 7 -3
v -4 7 -4
v 4 7 -4
v -3 16 3
v 3 16 3
v -1 16 1
v 1 16 1
v -1 16 -1
v 1 16 -1
v -3 16 -3
v 3 16 -3
v -4 1 4
v 4 1 4
v -1 1 1
v 1 1 1
v -1 1 -1
v 1 1 -1
v -4 1 -4
v 4 1 -4
v -4 17 4
v 4 17 4
v -1 17 1
v 1 17 1
v -1 17 -1
v 1 17 -1
v -4 17 -4
v 4 17 -4
v -1 18 1
v 1 18 1
v -1 18 -1
v 1 18 -1

# faces
f 3/2/1 2/2/1 1/2/1
f 4/2/1 2/2/1 3/2/1
f 7/1/1 6/1/1 5/1/1
f 8/1/1 6/1/1 7/1/1
f 11/2/1 10/2/1 9/2/1
f 12/2/1 10/2/1 11/2/1
f 15/2/1 14/2/1 13/2/1
f 16/2/1 14/2/1 15/2/1
f 19/1/1 18/1/1 17/1/1
f 20/1/1 18/1/1 19/1/1
f 21/1/2 22/1/2 23/1/2
f 23/1/2 22/1/2 24/1/2
f 25/2/2 26/2/2 27/2/2
f 27/2/2 26/2/2 28/2/2
f 29/2/2 30/2/2 31/2/2
f 31/2/2 30/2/2 32/2/2
f 33/2/2 34/2/2 35/2/2
f 35/2/2 34/2/2 36/2/2
f 37/1/2 38/1/2 39/1/2
f 39/1/2 38/1/2 40/1/2
f 45/2/3 42/2/3 41/2/3
f 46/2/3 42/2/3 45/2/3
f 47/1/3 44/1/3 43/1/3
f 48/1/3 44/1/3 47/1/3
f 53/2/3 50/2/3 49/2/3
f 54/2/3 50/2/3 53/2/3
f 55/2/3 52/2/3 51/2/3
f 56/2/3 52/2/3 55/2/3
f 59/1/3 58/1/3 57/1/3
f 60/1/3 58/1/3 59/1/3
f 61/1/4 62/1/4 63/1/4
f 63/1/4 62/1/4 64/1/4
f 65/2/4 66/2/4 69/2/4
f 69/2/4 66/2/4 70/2/4
f 67/2/4 68/2/4 71/2/4
f 71/2/4 68/2/4 72/2/4
f 73/2/4 74/2/4 77/2/4
f 77/2/4 74/2/4 78/2/4
f 75/1/4 76/1/4 79/1/4
f 79/1/4 76/1/4 80/1/4
f 83/2/5 82/2/5 81/2/5
f 84/2/5 82/2/5 83/2/5
f 87/1/5 86/1/5 85/1/5
f 88/1/5 86/1/5 87/1/5
f 89/1/5 87/1/5 85/1/5
f 90/1/5 86/1/5 88/1/5
f 91/1/5 89/1/5 85/1/5
f 91/1/5 90/1/5 89/1/5
f 92/1/5 86/1/5 90/1/5
f 92/1/5 90/1/5 91/1/5
f 95/1/5 94/1/5 93/1/5
f 96/1/5 94/1/5 95/1/5
f 97/1/5 95/1/5 93/1/5
f 98/1/5 94/1/5 96/1/5
f 99/1/5 97/1/5 93/1/5
f 99/1/5 98/1/5 97/1/5
f 100/1/5 94/1/5 98/1/5
f 100/1/5 98/1/5 99/1/5
f 101/2/6 102/2/6 103/2/6
f 103/2/6 102/2/6 104/2/6
f 101/2/6 103/2/6 105/2/6
f 104/2/6 102/2/6 106/2/6
f 101/2/6 105/2/6 107/2/6
f 105/2/6 106/2/6 107/2/6
f 106/2/6 102/2/6 108/2/6
f 107/2/6 106/2/6 108/2/6
f 109/1/6 110/1/6 111/1/6
f 111/1/6 110/1/6 112/1/6
f 109/1/6 111/1/6 113/1/6
f 112/1/6 110/1/6 114/1/6
f 109/1/6 113/1/6 115/1/6
f 113/1/6 114/1/6 115/1/6
f 114/1/6 110/1/6 116/1/6
f 115/1/6 114/1/6 116/1/6
f 117/2/6 118/2/6 119/2/6
f 119/2/6 118/2/6 120/2/6
